<svg class="animated" id="freepik_stories-dark-alley" xmlns="http://www.w3.org/2000/svg" viewBox="0 0 750 500" version="1.1" xmlns:xlink="http://www.w3.org/1999/xlink" xmlns:svgjs="http://svgjs.com/svgjs"><style>svg#freepik_stories-dark-alley:not(.animated) .animable {opacity: 0;}svg#freepik_stories-dark-alley.animated #freepik--Dumpster--inject-74 {animation: 6s Infinite  linear shake;animation-delay: 0s;}            @keyframes shake {                10%, 90% {                    transform: translate3d(-1px, 0, 0);                  }                  20%, 80% {                    transform: translate3d(2px, 0, 0);                  }                  30%, 50%, 70% {                    transform: translate3d(-4px, 0, 0);                  }                  40%, 60% {                    transform: translate3d(4px, 0, 0);                  }            }        </style><g id="freepik--background-complete--inject-74" class="animable" style="transform-origin: 374.76px 248.23px;"><rect x="72.94" y="195.11" width="35.06" height="11.19" style="fill: rgb(235, 235, 235); transform-origin: 90.47px 200.705px;" id="elebpu10wg2dq" class="animable"></rect><path d="M88.44,220.41,71,220.7l-8.8.12-8.85.05h-.45v-.46l0-11.19v-.5h.5l17.53.07,8.77.08,8.76.11h.24v.23Zm0,0-.24-11.19.24.24-8.76.11-8.77.08-17.53.07.5-.5,0,11.19-.46-.46,8.69.05,8.72.12Z" style="fill: rgb(235, 235, 235); transform-origin: 70.8px 214.795px;" id="eljtx26phmk7" class="animable"></path><path d="M634.25,179.19l17.41-.29,8.81-.12,8.84,0h.45v.45l0,11.19v.51h-.5l-17.53-.06-8.76-.09-8.77-.11H634v-.24Zm0,0,.24,11.19-.24-.23L643,190l8.76-.09,17.53-.07-.5.5,0-11.19.46.46-8.69,0-8.72-.12Z" style="fill: rgb(235, 235, 235); transform-origin: 651.88px 184.855px;" id="el1bupbo5tjex" class="animable"></path><path d="M653.81,165.08l17.41-.29,8.8-.12,8.85,0h.45v.45l0,11.19v.51h-.5l-17.53-.06-8.77-.09-8.76-.11h-.24v-.24Zm0,0,.24,11.19-.24-.23,8.76-.11,8.77-.09,17.53-.07-.5.5,0-11.19.46.46-8.69,0-8.72-.12Z" style="fill: rgb(235, 235, 235); transform-origin: 671.42px 170.745px;" id="eleahjm7wuwgv" class="animable"></path><path d="M127.55,220.41l-17.41.29-8.8.12-8.84.05H92v-.46l0-11.19v-.5h.51l17.52.07,8.77.08,8.76.11h.24v.23Zm0,0-.24-11.19.24.24-8.76.11-8.77.08-17.52.07.49-.5,0,11.19L92.5,220l8.68.05,8.72.12Z" style="fill: rgb(235, 235, 235); transform-origin: 109.9px 214.795px;" id="elrojx7zbra2" class="animable"></path><g id="el3pkg6pjrf8n"><rect x="332.27" y="168.41" width="35.06" height="11.19" style="fill: rgb(235, 235, 235); transform-origin: 349.8px 174.005px; transform: rotate(180deg);" class="animable"></rect></g><path d="M351.82,154.3l17.41-.29,8.81-.12,8.84,0h.46v.46l0,11.19v.5h-.5l-17.53-.07-8.76-.08-8.77-.11h-.24v-.23Zm0,0,.24,11.19-.24-.24,8.77-.11,8.76-.08,17.53-.07-.5.5.05-11.19.45.46-8.68,0-8.73-.12Z" style="fill: rgb(235, 235, 235); transform-origin: 369.44px 159.965px;" id="elzvpqrgpics" class="animable"></path><path d="M312.71,154.3l17.41-.29,8.81-.12,8.84,0h.45v.46l0,11.19v.5h-.5l-17.53-.07-8.76-.08-8.77-.11h-.24v-.23Zm0,0,.24,11.19-.24-.24,8.77-.11,8.76-.08,17.53-.07-.5.5,0-11.19.46.46-8.69,0-8.72-.12Z" style="fill: rgb(235, 235, 235); transform-origin: 330.32px 159.965px;" id="el6ukisa4fjd5" class="animable"></path><path d="M545.77,58.38l-17.41.29-8.8.12-8.85,0h-.45v-.45l-.05-11.19v-.51h.5l17.53.06,8.77.09,8.76.11H546v.24Zm0,0-.24-11.19.24.23-8.76.11-8.77.09-17.53.07.5-.5,0,11.19-.46-.46,8.69,0,8.72.12Z" style="fill: rgb(235, 235, 235); transform-origin: 528.105px 52.715px;" id="ellgk4c7pl8no" class="animable"></path><rect x="530.27" y="61.3" width="35.06" height="11.19" style="fill: rgb(235, 235, 235); transform-origin: 547.8px 66.895px;" id="el0tkr62picfk" class="animable"></rect><path d="M88.44,58.39,71,58.68l-8.8.12-8.85,0h-.45v-.46l0-11.19v-.5h.5l17.53.07,8.77.08,8.76.11h.24v.24Zm0,0L88.2,47.2l.24.24-8.76.1-8.77.09-17.53.07.5-.5,0,11.19-.46-.46,8.69,0,8.72.12Z" style="fill: rgb(235, 235, 235); transform-origin: 70.8px 52.725px;" id="ely3povd4adjl" class="animable"></path><path d="M391.68,313.81l17.41-.3,8.81-.12,8.84,0h.45v.46l.05,11.19v.5h-.5l-17.53-.07-8.76-.09-8.77-.11h-.24V325Zm0,0,.24,11.19-.24-.24,8.77-.11,8.76-.08,17.53-.07-.5.5,0-11.19.46.45-8.69,0-8.72-.12Z" style="fill: rgb(235, 235, 235); transform-origin: 409.34px 319.465px;" id="el640o6gmgm6p" class="animable"></path><g id="elspy3d7cg4b"><rect x="136.68" y="400.02" width="35.06" height="11.19" style="fill: rgb(235, 235, 235); transform-origin: 154.21px 405.615px; transform: rotate(180deg);" class="animable"></rect></g><g id="elwgcg06sd42"><rect x="661.56" y="400.02" width="35.06" height="11.19" style="fill: rgb(235, 235, 235); transform-origin: 679.09px 405.615px; transform: rotate(180deg);" class="animable"></rect></g><g id="elij3gn8phm2i"><rect x="565.33" y="352.42" width="35.06" height="11.19" style="fill: rgb(235, 235, 235); transform-origin: 582.86px 358.015px; transform: rotate(180deg);" class="animable"></rect></g><path d="M584.88,338.31l17.41-.29,8.81-.12,8.84,0h.45v.46l.05,11.19v.5h-.5l-17.53-.07-8.76-.08-8.77-.11h-.24v-.24Zm0,0,.24,11.19-.24-.24,8.77-.11,8.76-.08,17.53-.07-.5.5,0-11.19.46.46-8.69,0-8.72-.12Z" style="fill: rgb(235, 235, 235); transform-origin: 602.54px 343.975px;" id="el2qgf0b2p12n" class="animable"></path><path d="M538.34,260s-8.56,3.12-11.39,4.45-10.14,8-11.13,12.3-6.32,12.31-9,13.31-6,3.09-11.64,4.37-19.49,1.94-23.38,4.27-6.45,2.54-8.84,7.32-.11,27.67-5.23,32.29-6.7.3-9.4,7.61-41.24,31-42.09,33.62,2.94,13.86,2.94,13.86l1,20.24L418.5,423H538.34Z" style="fill: rgb(235, 235, 235); transform-origin: 472.228px 341.5px;" id="elmtsyp0gn22s" class="animable"></path><path d="M520.3,275.76c-2.4-2.71-4.79-5.44-7.13-8.2s-4.71-5.52-7-8.31l.29.16-6.78-.79c-2.26-.26-4.52-.57-6.77-.86l-6.77-.87-6.76-.95-.28,0v-.26c0-1.61,0-3.22.11-4.82l0,.09c-.89-1.75-1.78-3.49-2.65-5.25,1,1.68,2,3.37,3,5.06l0,0v.06c.06,1.6.08,3.21.11,4.82l-.27-.31,6.79.72,6.78.79c2.26.27,4.52.51,6.78.8l6.77.88.18,0,.11.14c2.3,2.8,4.55,5.64,6.79,8.48S518.11,272.87,520.3,275.76Z" style="fill: rgb(235, 235, 235); transform-origin: 498.43px 260.73px;" id="elbvconh9kick" class="animable"></path><path d="M502.33,258.45c-2.67-3.41-5.23-6.9-7.8-10.39l-.09-.13,0-.16.84-6.74c.28-2.25.55-4.5.88-6.74l.95-6.73,1-6.71,0,.2c-.69-1.06-1.35-2.13-2-3.2s-1.34-2.14-2-3.22c.77,1,1.51,2,2.26,3s1.49,2,2.22,3.06l.06.08v.11l-.76,6.76-.84,6.74c-.27,2.25-.59,4.49-.91,6.73l-1,6.73-.07-.29C497.61,251.18,500,254.78,502.33,258.45Z" style="fill: rgb(235, 235, 235); transform-origin: 498.22px 236.54px;" id="elrfe1xrtbsge" class="animable"></path><path d="M406.26,379.54q-6.19-4.62-12.34-9.34c-4.09-3.14-8.18-6.28-12.23-9.47l-.07-.05,0-.08c-2.48-4.24-5-8.46-7.43-12.72l-7.35-12.77-.11-.19.09-.19L372.07,323l2.69-5.85,2.72-5.84-2.44,6-2.46,5.95-5,11.87,0-.39L375,347.39c2.49,4.24,4.91,8.51,7.37,12.76l-.11-.13c4,3.2,8.05,6.45,12.05,9.7S402.3,376.24,406.26,379.54Z" style="fill: rgb(235, 235, 235); transform-origin: 386.495px 345.425px;" id="el7xqhszgkcf2" class="animable"></path><path d="M375,348.38c.14-.82.34-1.62.5-2.44s.39-1.6.61-2.4c.42-1.59.89-3.17,1.39-4.74l0,.14a75.2,75.2,0,0,1,.5-9,77.33,77.33,0,0,1,.49,9V339l0,.07c-.49,1.58-1,3.14-1.58,4.69-.28.78-.58,1.55-.88,2.32S375.36,347.63,375,348.38Z" style="fill: rgb(235, 235, 235); transform-origin: 376.745px 339.16px;" id="eljxzx0dddhkg" class="animable"></path><path d="M534.63,265.87h-.34l-9.65.08-.61.48,9.92.09h4.39v-.67Z" style="fill: rgb(219, 219, 219); transform-origin: 531.185px 266.185px;" id="elmhdgin0sz9c" class="animable"></path><path d="M534.67,277.21h-.2v.17l-.18-.17h.18v0l-.17-10.64v0h0L534.13,277v.55h.56l3.67,0v-.41Zm0-11,3.7.05v-.1Z" style="fill: rgb(219, 219, 219); transform-origin: 536.25px 271.855px;" id="elxyf911fu4mm" class="animable"></path><path d="M534.64,266.52v-.67h-.34c-3.19,0-6.38,0-9.57,0l-.08.05-.61.48-.06.05q5,0,10,0v-.34l.33.33H534l0,10.48h.37l-.37.37V277l-16.81.05h-1.37c0,.2-.12.41-.19.63h1.56l17.18.05h.38v-.6Z" style="fill: rgb(219, 219, 219); transform-origin: 525.19px 271.79px;" id="elba71lhcc0pw" class="animable"></path><path d="M534.63,288.25h-.34l-17.15.15h-.2v.17l-.17-.17h.17v0l-.16-10.64h0v0h0l-.16,10.48v.55h.56l16.81.15h4.39v-.67Zm0-11.09h-.75l-16.81.22,17.27.22h.29l3.67,0v-.52Zm-17.89.55h0v0h0l-.16,10.48v.15h.35Z" style="fill: rgb(219, 219, 219); transform-origin: 527.48px 283.01px;" id="eldoyvjbf9p8t" class="animable"></path><path d="M534.67,299.59h-.2v.17l-.18-.17h.18v0l-.17-10.64v0h0l-.15,10.48v.55h.56l3.67,0v-.41Zm0-11,3.7.05v-.1Z" style="fill: rgb(219, 219, 219); transform-origin: 536.265px 294.26px;" id="elogyj1pj8pf" class="animable"></path><path d="M534.64,288.9v-.67h-.34c-5.72,0-11.46,0-17.15.12h-.75l-7.44.1c-.08.08-.16.17-.24.24l8.15.1h.28c5.62.07,11.22.12,16.81.12v-.34l.33.33H534l0,10.48h.37l-.37.37v-.37l-16.81.05h-.34l-17.16.15h-.2v.17l-.17-.17h.17v0l-.1-6.3-.15.05-.09,6.1v.55h.55l16.81.15h.69l17.18.05h.38v-.6Z" style="fill: rgb(219, 219, 219); transform-origin: 516.955px 294.205px;" id="eludjqadxuxi9" class="animable"></path><path d="M534.63,310.63h-.34l-17.15.14h-.2V311l-.17-.18h.17v0l-.16-10.64h0v0h0l-.16,10.48v.55h.56l16.81.15h4.39v-.67Zm0-11.09h-.75l-16.81.22,17.27.22h.29l3.67,0v-.52Zm-17.89.55h0v0h0l-.16,10.48v.15h.35Zm17.89-.15h-.56v-.4h-.2l-16.81.22,17.27.22h.29l3.67,0v0Z" style="fill: rgb(219, 219, 219); transform-origin: 527.48px 305.41px;" id="ell6r7ptyqcpf" class="animable"></path><path d="M534.67,322h-.2v.18l-.18-.18h.18v0l-.17-10.64v0h0l-.15,10.48v.55h.56l3.67,0v-.42Zm0-11,3.7.05v-.1Z" style="fill: rgb(219, 219, 219); transform-origin: 536.265px 316.67px;" id="els125h8ygzoq" class="animable"></path><path d="M534.64,311.28v-.67h-.34c-5.72,0-11.46.05-17.15.12h-.75l-16.81.22,17.28.22h.28c5.62.07,11.22.12,16.81.12V311l.33.33H534l0,10.48h.37l-.15.15-.22.22v-.37l-16.81.05h-.34l-17.16.14h-.2v.18l-.17-.18h.17v0l-.16-10.64h0v0h0l-.16,10.48v.55h.55l16.81.15h.69l17.18,0h.38v-.6Z" style="fill: rgb(219, 219, 219); transform-origin: 516.975px 316.575px;" id="el3ngn0nrf6vh" class="animable"></path><path d="M534.63,333h-.34l-17.15.14h-.2v.18l-.17-.18h.17v0l-.16-10.64h0v0h0L516.6,333v.55h.56l16.81.15h4.39V333Zm0-11.09h-.75l-16.81.22,17.27.22h.29l3.67,0v-.52Zm-17.89.55h0v0h0L516.6,333v.15h.35Zm17.89-.15h-.56v-.4h-.2l-16.81.22,17.27.22h.29l3.67,0v0Z" style="fill: rgb(219, 219, 219); transform-origin: 527.48px 327.765px;" id="ell1tn6v5rlp" class="animable"></path><path d="M534.67,344.34h-.2v.18l-.18-.18h.18v0l-.17-10.64v0h0l-.15,10.48v.55h.56l3.67,0v-.42Zm0-11,3.7.05v-.1Z" style="fill: rgb(219, 219, 219); transform-origin: 536.265px 339.01px;" id="elaegtbnfl0y" class="animable"></path><path d="M534.64,333.66V333h-.34c-5.72,0-11.46.05-17.15.12h-.75l-16.81.22,17.28.22h.28c5.62.07,11.22.12,16.81.12v-.34l.33.33H534l0,10.48h.37l-.15.15,0,0-.2.2v-.37l-16.81.05h-.34l-17.16.14h-.2v.18l-.17-.18h.17v0l-.16-10.64h0v0h0l-.16,10.48v.55h.55l16.81.15h.69l17.18,0h.38v-.6Z" style="fill: rgb(219, 219, 219); transform-origin: 516.995px 338.93px;" id="elxm7xnj2hayo" class="animable"></path><path d="M534.63,355.39h-.34l-17.15.14h-.2v.18l-.17-.18h.17v0l-.16-10.64h0v0h0l-.16,10.48v.55h.56L534,356h4.39v-.67Zm0-11.09h-.75l-16.81.22,17.27.22h.29l3.67,0v-.52Zm-17.89.55h0v0h0l-.16,10.48v.15h.35Zm17.89-.15h-.56v-.4h-.2l-16.81.22,17.27.22h.29l3.67,0v0Z" style="fill: rgb(219, 219, 219); transform-origin: 527.485px 350.11px;" id="eltn5a63o296" class="animable"></path><path d="M534.67,366.72h-.2v.18l-.18-.18h.18v0L534.3,356v0h0l-.15,10.48v.55h.56l3.67,0v-.42Zm0-11,3.7.05v-.1Z" style="fill: rgb(219, 219, 219); transform-origin: 536.265px 361.35px;" id="eldy3r0i9cjr4" class="animable"></path><path d="M534.64,356v-.67h-.34c-5.72,0-11.46.05-17.15.12h-.75l-16.81.22,17.28.22h.28c5.62.07,11.22.12,16.81.12v-.34l.33.33H534l0,10.48h.37l-.15.15,0,0-.2.2v-.37l-16.81.05h-.34l-17.16.14h-.2v.18l-.17-.18h.17v0L499.25,356h0v0h0l-.16,10.48v.55h.55l16.81.15h.69l17.18,0h.38v-.6Z" style="fill: rgb(219, 219, 219); transform-origin: 516.895px 361.255px;" id="elxaq7vyuglne" class="animable"></path><path d="M534.63,377.77h-.34l-17.15.14h-.2v.18l-.17-.18h.17v0l-.16-10.64h0v0h0l-.16,10.48v.55h.56l16.81.14h4.39v-.66Zm0-11.09h-.75l-16.81.22,17.27.22h.29l3.67,0v-.52Zm-17.89.55h0v0h0l-.16,10.48v.15h.35Zm17.89-.15h-.56v-.4h-.2l-16.81.22,17.27.22h.29l3.67,0v-.05Z" style="fill: rgb(219, 219, 219); transform-origin: 527.48px 372.52px;" id="el7qqslce5ji5" class="animable"></path><path d="M534.67,389.1h-.2v.18l-.18-.18h.18v0l-.17-10.65v0h0l-.15,10.48v.55h.56l3.67,0v-.42Zm0-11,3.7.05V378Z" style="fill: rgb(219, 219, 219); transform-origin: 536.265px 383.74px;" id="el0xa4tkkcv4bn" class="animable"></path><path d="M534.64,378.41v-.66h-.34c-5.72,0-11.46.05-17.15.12h-.75l-16.81.22,17.28.22h.28c5.62.07,11.22.12,16.81.12v-.34l.33.33H534l0,10.48h.37l-.15.15,0,0-.2.2v-.37l-16.81,0h-.34l-17.16.14h-.2v.18l-.17-.18h.17v0l-.17-10.65v0l-.16,10.48v.55h.55l16.81.14h.69l17.18.06h.38v-.6Z" style="fill: rgb(219, 219, 219); transform-origin: 516.985px 383.675px;" id="elph8uv995cid" class="animable"></path><path d="M534.63,400.15h-.34l-17.15.14h-.2v.18l-.17-.18h.17v0l-.17-10.65v0l-.16,10.48v.55h.56l16.81.14h4.39v-.66Zm0-11.09h-.75l-16.81.22,17.27.22h.29l3.67,0V389Zm-17.9.54v0l-.16,10.48v.15h.35Zm17.9-.14h-.56v-.4h-.2l-16.81.22,17.27.22h.29l3.67,0v-.05Z" style="fill: rgb(219, 219, 219); transform-origin: 527.47px 394.905px;" id="el0k7ma4zqflon" class="animable"></path><path d="M534.67,411.48h-.2v.18l-.18-.18h.18v0l-.17-10.65v0h0l-.15,10.48v.55h.56l3.67,0v-.42Zm0-11,3.7,0v-.1Z" style="fill: rgb(219, 219, 219); transform-origin: 536.265px 406.12px;" id="eldznv6o8mj8d" class="animable"></path><path d="M534.64,400.79v-.66h-.34c-5.72,0-11.46.05-17.15.12h-.75l-16.81.22,17.28.22h.28c5.62.07,11.22.12,16.81.12v-.34l.33.33H534l0,10.48h.37l-.15.15,0,0-.2.2v-.37l-16.81,0h-.34l-17.16.14h-.2v.18l-.17-.18h.17v0l-.17-10.65v0l-.16,10.48v.55h.55l16.81.14h.69l17.18.06h.38v-.6Z" style="fill: rgb(219, 219, 219); transform-origin: 516.985px 406.055px;" id="elwj6y2lhsxcf" class="animable"></path><path d="M534.63,422.53h-.34l-17.15.14h-.2v.18l-.17-.18h.17v0L516.77,412v0l-.16,10.48V423h.56l16.81.14h.69V423h3.7v-.47Zm0-11.09h-.75l-16.81.22,17.27.22h.29l3.67,0v-.52Zm-17.9.54v0l-.16,10.48v.15h.35Zm17.9-.14h-.56v-.4h-.2l-16.81.22,17.27.22h.29l3.67,0v-.05Z" style="fill: rgb(219, 219, 219); transform-origin: 527.47px 417.25px;" id="els6ox5tlbbsb" class="animable"></path><path d="M534.29,423v.18h0Zm.35-.14,3.7,0v-.1Z" style="fill: rgb(219, 219, 219); transform-origin: 536.315px 422.97px;" id="elwlb5s7x7mc" class="animable"></path><path d="M534.63,422.53v0h-.34c-5.72,0-11.46.05-17.15.12h-.75l-16.81.22,10.87.14,6.41.08h.28c5.62.07,11.22.12,16.81.12v-.34l.33.33h.36v-.64Zm-35.4.64h0v0Zm35.4-.64h-.34l-17.15.14h-.2v0h-.55l-16.81.22,10.87.14,6.41.08h.28c5.62.07,11.22.12,16.81.12v-.34l.14.14h.2v-.14h.35Z" style="fill: rgb(219, 219, 219); transform-origin: 516.935px 422.88px;" id="eli6s5umcfqxe" class="animable"></path><path d="M517.11,277.71V277h-1.37s0,0,0,0c0,.2-.12.41-.19.63v0h.88v-.34l.33.33h-.33l0,10.48h.37l-.15.15,0,0-.2.2v-.37l-7.22,0a2.39,2.39,0,0,1-.22.23c-.08.08-.16.17-.24.24a2.77,2.77,0,0,1-.25.24l8.3,0h.38v-.6Z" style="fill: rgb(219, 219, 219); transform-origin: 512.86px 282.895px;" id="elxwjl80afuzl" class="animable"></path><path d="M499.59,293.15l-.28.09-.15.05-.28.1,0,6h.38l-.15.15,0,0-.2.2v-.37l-16.81.05h-.34l-11.38.1-.87.45,11.91.1h.68l17.19.05h.37v-.6Z" style="fill: rgb(219, 219, 219); transform-origin: 484.585px 296.635px;" id="elu5towscdcq" class="animable"></path><path d="M517.11,300.09v-.67h-.35q-8.6,0-17.15.12h-.75l-16.81.22,17.28.22h.28c5.62.07,11.22.12,16.81.12v-.34l.33.33h-.33l0,10.48h.37l-.15.15,0,0-.2.2v-.37l-16.81.05h-.34l-17.16.14h-.19V311l-.18-.18h.18v0l-.17-10.64v0h0l-.16,10.48v.55h.55l16.81.15h.69l17.18.05h.38v-.6Zm-35.39,0v0h0l-.16,10.48v.15h.36Zm17.89-.15h-.55v-.4h-.2l-16.81.22,17.28.22h.28c5.62.07,11.22.12,16.81.12h0Z" style="fill: rgb(219, 219, 219); transform-origin: 499.39px 305.415px;" id="eln4ir0s7dv7g" class="animable"></path><path d="M499.58,311.28v-.67h-.34q-8.61,0-17.16.12h-.75l-16.81.22,17.28.22h.28c5.62.07,11.22.12,16.81.12V311l.34.33h-.34l0,10.48h.38l-.15.15,0,0-.2.2v-.37l-16.81.05h-.34l-17.16.14h-.19v.18l-.18-.18h.18v0l-.17-10.64v0h0L464,321.77v.55h.55l16.82.15h.68l17.19,0h.37v-.6Z" style="fill: rgb(219, 219, 219); transform-origin: 481.805px 316.54px;" id="eljc9sygyzob8" class="animable"></path><path d="M517.11,322.47v-.67h-.35q-8.6,0-17.15.12h-.75l-16.81.22,17.28.22h.28c5.62.07,11.22.12,16.81.12v-.34l.33.33h-.33l0,10.48h.37l-.15.15,0,0-.2.2V333l-16.81.05h-.34l-17.16.14h-.19v.18l-.18-.18h.18v0l-.17-10.64v0h0L481.54,333v.55h.55l16.81.15h.69l17.18,0h.38v-.6Zm-35.22,10.68v.18l-.18-.18h.18v0l-.17-10.64v0h0L481.54,333v.15h0l0,0v.38h.55v-.36Zm17.72-10.83h-.55v-.4h-.2l-16.81.22,17.28.22h.28c5.62.07,11.22.12,16.81.12h0Z" style="fill: rgb(219, 219, 219); transform-origin: 499.345px 327.75px;" id="elntmpq6bss5" class="animable"></path><path d="M499.58,333.66V333h-.34q-8.61,0-17.16.12h-.75l-16.81.22,17.28.22h.28c5.62.07,11.22.12,16.81.12v-.34l.34.33h-.34l0,10.48h.38l-.15.15,0,0-.2.2v-.37l-16.81.05h-.34l-17.16.14h-.19v.18l-.18-.18h.18v0l-.17-10.64v0h0L464,344.15v.55h.55l16.82.15h.68l17.19,0h.37v-.6Z" style="fill: rgb(219, 219, 219); transform-origin: 481.805px 338.925px;" id="elolwlnx2viv" class="animable"></path><path d="M517.11,344.85v-.67h-.35c-5.73,0-11.45.05-17.15.12h-.75l-16.81.22,17.28.22h.28c5.62.07,11.22.12,16.81.12v-.34l.34.34h-.34l0,10.48h.37l-.15.15,0,0-.2.2v-.37l-16.81.05h-.34l-17.16.14h-.19v.18l-.18-.18h.18v0l-.17-10.64v0h0l-.16,10.48v.55h.55l16.81.15h.69l17.18,0h.38v-.6Zm-35.22,10.68v.18l-.18-.18h.18v0l-.17-10.64v0h0l-.16,10.48v.15h0l0,0v.38h.55v-.36Zm17.72-10.83h-.55v-.4h-.2l-16.81.22,17.28.22h.28c5.62.07,11.22.12,16.81.12h0Z" style="fill: rgb(219, 219, 219); transform-origin: 499.39px 350.115px;" id="el7xvrj5v4bnt" class="animable"></path><path d="M499.58,356v-.67h-.34c-5.74,0-11.46.05-17.16.12h-.75l-16.81.22,17.28.22h.28c5.62.07,11.22.12,16.81.12v-.34l.34.33h-.34l0,10.48h.38l-.15.15,0,0-.2.2v-.37l-16.81.05h-.34l-17.16.14h-.19v.18l-.18-.18h.18v0L464.19,356v0h0L464,366.53v.55h.55l16.82.15h.68l17.19,0h.37v-.6Z" style="fill: rgb(219, 219, 219); transform-origin: 481.805px 361.28px;" id="elrtbe48mauxe" class="animable"></path><path d="M517.11,367.23v-.67h-.35c-5.73,0-11.45.05-17.15.12h-.75l-16.81.22,17.28.22h.28c5.62.07,11.22.12,16.81.12v-.34l.34.34h-.34l0,10.48h.37l-.15.15,0,0-.2.2v-.37l-16.81,0h-.34l-17.16.14h-.19v.18l-.18-.18h.18v0l-.17-10.64v0h0l-.16,10.48v.55h.55l16.81.14h.69l17.18.06h.38v-.6Zm-35.39,0v0h0l-.16,10.48v.15h.36Zm17.89-.15h-.55v-.4h-.2l-16.81.22,17.28.22h.28c5.62.07,11.22.12,16.81.12h0Z" style="fill: rgb(219, 219, 219); transform-origin: 499.39px 372.495px;" id="elt5uomzqmydo" class="animable"></path><path d="M499.58,378.41v-.66h-.34c-5.74,0-11.46.05-17.16.12h-.75l-16.81.22,17.28.22h.28c5.62.07,11.22.12,16.81.12v-.34l.33.32h-.33l0,10.48h.38l-.15.15,0,0-.2.2v-.37l-16.81,0h-.34l-17.16.14h-.19v.18l-.18-.18h.18v0l-.17-10.65v0L464,388.91v.55h.55l16.82.14h.68l17.19.06h.37v-.6Z" style="fill: rgb(219, 219, 219); transform-origin: 481.805px 383.705px;" id="el9wdakpba0ui" class="animable"></path><path d="M517.11,389.6v-.66h-.35c-5.73,0-11.45.05-17.15.12h-.75l-16.81.22,17.28.22h.28c5.62.07,11.22.12,16.81.12v-.34l.34.34h-.34l0,10.48h.37l-.37.37v-.37l-16.81,0h-.34l-17.16.14h-.19v.18l-.18-.18h.18v0l-.17-10.65v0l-.16,10.48v.55h.55l16.81.14h.69l17.18.06h.38v-.6Zm-35.39,0v0l-.16,10.48v.15h.36Zm17.89-.14h-.55v-.4h-.2l-16.81.22,17.28.22h.28c5.62.07,11.22.12,16.81.12v0Z" style="fill: rgb(219, 219, 219); transform-origin: 499.38px 394.88px;" id="elg8wikcqccc" class="animable"></path><path d="M499.58,400.79v-.66h-.34c-5.74,0-11.46.05-17.16.12h-.75l-16.81.22,17.28.22h.28c5.62.07,11.22.12,16.81.12v-.34l.33.32h-.33l0,10.48h.38l-.15.15,0,0-.2.2v-.37l-16.81,0h-.34l-17.16.14h-.19v.18l-.18-.18h.18v0l-.17-10.65v0L464,411.29v.55h.55l16.82.14h.68l17.19.06h.37v-.6Z" style="fill: rgb(219, 219, 219); transform-origin: 481.805px 406.085px;" id="elb548tkjzoe" class="animable"></path><path d="M517.11,412v-.66h-.35c-5.73,0-11.45.05-17.15.12h-.75l-16.81.22,17.28.22h.28c5.62.07,11.22.12,16.81.12v-.34l.34.34h-.34l0,10.48h.37l-.37.37v-.37l-16.81,0h-.34l-17.16.14h-.19v.18l-.18-.18h.18v0L481.72,412v0l-.16,10.48V423h.55l16.81.14h.69l17.18.06h.38v-.6Zm-17.5-.14h-.55v-.4h-.2l-16.81.22,17.28.22h.28c5.62.07,11.22.12,16.81.12v0Z" style="fill: rgb(219, 219, 219); transform-origin: 499.365px 417.27px;" id="elmwmqiec4cr" class="animable"></path><path d="M499.24,422.51c-5.74,0-11.46.05-17.16.12h-.75l-16.81.22,10.87.14,6.41.08h.28c5.62.07,11.22.12,16.81.12v-.34l.14.14.19.18h.36v-.66Zm-35.06.48v.18h0Zm35.06-.48c-5.74,0-11.46.05-17.16.12h-.75l-16.81.22,10.87.14,6.41.08h.28c5.62.07,11.22.12,16.81.12v-.34l.14.14h.21v-.14h.34v-.34Z" style="fill: rgb(219, 219, 219); transform-origin: 481.88px 422.85px;" id="elfjrjiz2n6cd" class="animable"></path><path d="M482.05,300.09v-.67h-.34q-5.65,0-11.28.06l-.1.06-.87.45-.09,0c4,0,8,.07,12,.07v-.34l.33.33h-.33l0,10.48h.38l-.15.15,0,0-.2.2v-.37l-16.81.05h-.34l-2.16,0-.06.61,1.88,0h.68l17.19.05h.37v-.6Zm-17.53,10.54V311l16.81-.22v-.15Z" style="fill: rgb(219, 219, 219); transform-origin: 472.09px 305.32px;" id="eliv3nipwoxli" class="animable"></path><path d="M464.55,322.32v-.4l0-10.64v-.67H462v0l-.06.61v0h1.88V311l.33.33h-.33l0,10.48h.37l-.15.15-.22.22v-.37H461.4a.91.91,0,0,1,0,.17c0,.13,0,.25,0,.37a1.21,1.21,0,0,0,0,.19h3.19v-.2Zm-.71-11,0,10.48h.2l.16-10.48Z" style="fill: rgb(219, 219, 219); transform-origin: 462.993px 316.575px;" id="elk2x5zt1zgip" class="animable"></path><path d="M482.05,322.47v-.67h-.34q-8.61,0-17.16.12h-.74l-2.42,0c0,.13,0,.25,0,.37l2.89,0h.29c5.63.07,11.22.12,16.81.12v-.34l.33.33h-.33l0,10.48h.38l-.15.15,0,0-.2.2V333l-16.81.05h-.34l-4,0c0,.2-.09.39-.14.58l3.81,0h.68l17.19,0h.37v-.6ZM464.52,333v.32l16.81-.22V333Z" style="fill: rgb(219, 219, 219); transform-origin: 471.145px 327.715px;" id="elwqh5zknud9" class="animable"></path><path d="M464.55,344.7v-.4l0-10.64V333h-.34l-4,0s0,0,0,0c0,.2-.09.39-.14.58a.06.06,0,0,1,0,0h3.82v-.34l.33.33h-.33l0,10.48h.37l-.15.15,0,0-.19.19v-.37l-14.75,0-.13.3,0,.06c0,.1-.09.2-.13.31l15.41,0h.38v-.2Zm-.71-11,0,10.48h.2l.16-10.48Z" style="fill: rgb(219, 219, 219); transform-origin: 456.805px 338.85px;" id="el488q8bb83nb" class="animable"></path><path d="M482.05,344.85v-.67h-.34c-5.74,0-11.46.05-17.16.12h-.74l-14.88.19,0,.06,15.37.19h.29c5.63.07,11.22.12,16.81.12v-.34l.33.33h-.33l0,10.48h.38l-.15.15,0,0-.2.2v-.37l-16.81.05h-.34l-17.15.14h-.2v.18l-.18-.18h.18v0l-.12-7.11-.12.14-.11,6.82v.55H447l16.81.15h.68l17.19,0h.37v-.6Zm-17.53,10.54v.32l16.81-.22v-.15Z" style="fill: rgb(219, 219, 219); transform-origin: 464.315px 350.115px;" id="elbpgfs8pgfju" class="animable"></path><path d="M464.55,367.08v-.4l0-10.64v-.67h-.34c-5.72,0-11.46.05-17.15.12h-.75l-7.64.1-.3.24,8.4.1H447c5.63.07,11.22.12,16.81.12v-.34l.33.33h-.33l0,10.48h.37l-.15.15,0,0-.19.19v-.37l-16.82.05h-.34l-17.15.14h-.2v.18l-.18-.18h.18v0l-.07-4.07-.22.16-.05,3.76v.55h.56l16.81.15H447l17.19,0h.38v-.2Zm-.71-11,0,10.48h.2l.16-10.48Z" style="fill: rgb(219, 219, 219); transform-origin: 446.78px 361.3px;" id="el4lxy1rnqvkq" class="animable"></path><path d="M482.05,367.23v-.67h-.34c-5.74,0-11.46.05-17.16.12h-.74L447,366.9l17.28.22h.29c5.63.07,11.22.12,16.81.12v-.34l.33.33h-.33l0,10.48h.38l-.15.15,0,0-.2.2v-.37l-16.81,0h-.34l-17.15.14h-.2v.18l-.18-.18h.18v0l-.17-10.64v0h0l-.16,10.48v.55H447l16.81.14h.68l17.19.06h.37v-.6Zm-17.53,10.54v.32l16.81-.22v-.15Z" style="fill: rgb(219, 219, 219); transform-origin: 464.315px 372.49px;" id="elejln6g4gwkg" class="animable"></path><path d="M464.55,389.46v-.4l0-10.65v-.66h-.34c-5.72,0-11.46.05-17.15.12h-.75l-16.82.22,17.28.22H447c5.63.07,11.22.12,16.81.12v-.34l.32.32h-.32l0,10.48h.37l-.15.15,0,0-.19.19v-.37L447,389h-.34l-17.15.14h-.2v.18l-.18-.18h.18v0l-.17-10.65v0h0L429,388.91v.55h.56l16.81.14H447l17.19.06h.38v-.2Zm-.71-11,0,10.48h.2l.16-10.48Z" style="fill: rgb(219, 219, 219); transform-origin: 446.785px 383.705px;" id="elf6lrtlt82l6" class="animable"></path><path d="M482.05,389.6v-.66h-.34c-5.74,0-11.46.05-17.16.12h-.74l-16.82.22,17.28.22h.29c5.63.07,11.22.12,16.81.12v-.34l.33.33h-.33l0,10.48h.38l-.15.15,0,0-.2.2v-.37l-16.81,0h-.34l-17.15.14h-.2v.18l-.18-.18h.18v0l-.17-10.65v0l-.16,10.48v.55H447l16.81.14h.68l17.19.06h.37v-.6Zm-17.53,10.55v.32l16.81-.22v-.15Z" style="fill: rgb(219, 219, 219); transform-origin: 464.31px 394.865px;" id="el8rtthtk5wdy" class="animable"></path><path d="M464.55,411.84v-.4l0-10.65v-.66h-.34c-5.72,0-11.46.05-17.15.12h-.75l-16.82.22,17.28.22H447c5.63.07,11.22.12,16.81.12v-.34l.32.32h-.32l0,10.48h.37l-.15.15,0,0-.19.19v-.37l-16.82,0h-.34l-17.15.14h-.2v.18l-.18-.18h.18v0l-.17-10.65v0h0L429,411.29v.55h.56l16.81.14H447l17.19.06h.38v-.2Zm-.71-11,0,10.48h.2l.16-10.48Z" style="fill: rgb(219, 219, 219); transform-origin: 446.785px 406.085px;" id="el4xgzpi7njzj" class="animable"></path><path d="M482.05,412v-.66h-.34c-5.74,0-11.46.05-17.16.12h-.74l-16.82.22,17.28.22h.29c5.63.07,11.22.12,16.81.12v-.34l.33.33h-.33l0,10.48h.38l-.15.15,0,0-.2.2v-.37l-16.81,0h-.34l-17.15.14h-.2v.18l-.18-.18h.18v0L446.66,412v0l-.16,10.48V423H447l16.81.14h.68l17.19.06h.37v-.6Zm-.68,0,0,10.48h.21L481.7,412Zm.34-.68c-5.74,0-11.46.05-17.16.12h-.74l-16.82.22,17.28.22h.29c5.63.07,11.22.12,16.81.12v-.34l.32.32h0v-.32h.34v-.34Z" style="fill: rgb(219, 219, 219); transform-origin: 464.275px 417.26px;" id="elscrsuw1u0vs" class="animable"></path><path d="M464.18,422.51c-5.72,0-11.46.05-17.15.12h-.75l-16.82.22,10.87.14,6.41.08H447c5.63.07,11.22.12,16.81.12v-.34l.14.14.19.19h.35v-.66Zm-35.06.48v.18h0Zm35.06-.48c-5.72,0-11.46.05-17.15.12h-.75l-16.82.22,10.87.14,6.41.08H447c5.63.07,11.22.12,16.81.12v-.34l.14.14h.2v-.14h.34v-.34Z" style="fill: rgb(219, 219, 219); transform-origin: 446.805px 422.85px;" id="elui32534bww" class="animable"></path><path d="M447,348l-.29.35-.12.14-.29.31,0,6.51h.37l-.15.15,0,0-.19.19v-.37l-7.35,0-.29.23-.3.24-.31.24,8.62,0H447v-.6Zm0,0-.29.35-.12.14-.29.31,0,6.51h.37l-.15.15,0,0-.19.19v-.37l-7.35,0-.29.23-.3.24-.31.24,8.62,0H447v-.6Z" style="fill: rgb(219, 219, 219); transform-origin: 442.54px 351.995px;" id="elscie2ui5z7" class="animable"></path><path d="M429.48,362.43a1.44,1.44,0,0,1-.25.18l-.22.16-.25.18v3.58h.37l-.15.15,0,0-.2.2v-.37l-5,0-.29.2L423,367l-.31.22,6.43,0h.38v-.6Zm-.18,4.25-.07-4.07-.22.16-.25.18v3.58h.37l-.15.15Z" style="fill: rgb(219, 219, 219); transform-origin: 426.095px 364.825px;" id="elbzxs89z7vc" class="animable"></path><path d="M447,367.23v-.67h-.34c-5.72,0-11.46.05-17.15.12h-.75l-5.33.07L423,367l6.21.08h.29c5.63.07,11.22.12,16.81.12v-.34l.33.33h-.33l0,10.48h.37l-.15.15,0,0-.19.19v-.37l-16.82,0h-.34l-17.15.14h-.2v.18l-.17-.18h.17v0l0-2.87-.26.19,0,2.53v.55H412l16.81.14h.68l17.19.06H447v-.6Zm0,0h-.68l0,10.48h.37l-.15.15,0,0-.19.19v-.37l-16.82,0v.64l17.19.06H447v-.6Z" style="fill: rgb(219, 219, 219); transform-origin: 429.285px 372.47px;" id="elsqblrelf047" class="animable"></path><path d="M429.46,378.41v-.66h-.34c-5.72,0-11.46.05-17.15.12h-.75l-3.36.05-.4.34,4.23.05H412c5.62.07,11.22.12,16.81.12v-.34l.32.32h-.32l0,10.48h.37l-.37.37v-.37l-16.81,0h-.35l-3.75,0c.06.2.11.39.17.58l3.24,0h.69l17.18.06h.38v-.6Zm-.16,10.65-.17-10.65h-.35l0,10.48h.37l-.15.15Z" style="fill: rgb(219, 219, 219); transform-origin: 418.51px 383.64px;" id="elg3cxulpqqrr" class="animable"></path><path d="M447,389.6v-.66h-.34c-5.72,0-11.46.05-17.15.12h-.75l-16.81.22,17.27.22h.29c5.63.07,11.22.12,16.81.12v-.34l.33.33h-.33l0,10.48h.37l-.15.15,0,0-.19.19v-.37l-16.82,0h-.34l-17.15.14h-.2v.18l-.17-.18h.17v0l-.17-10.65v0h0l-.15,10.48v.55H412l16.81.14h.68l17.19.06H447v-.6Zm0,0h-.68l0,10.48h.37l-.15.15,0,0-.19.19v-.37l-16.82,0v.64l17.19.06H447v-.6Z" style="fill: rgb(219, 219, 219); transform-origin: 429.26px 394.86px;" id="elld6myyuckej" class="animable"></path><path d="M429.46,400.79v-.66h-.34c-5.72,0-11.46.05-17.15.12h-.75l-1.69,0,0,.39,2.14,0H412c5.62.07,11.22.12,16.81.12v-.34l.32.32h-.32l0,10.48h.37l-.37.37v-.37l-16.81,0h-1.88l0,.62h1.85l17.18.06h.38v-.6Zm-.16,10.65-.17-10.65h-.35l0,10.48h.37l-.15.15Z" style="fill: rgb(219, 219, 219); transform-origin: 419.53px 406.015px;" id="eld2yrd8sm1pj" class="animable"></path><path d="M447,412v-.66h-.34c-5.72,0-11.46.05-17.15.12h-.75l-16.81.22,17.27.22h.29c5.63.07,11.22.12,16.81.12v-.34l.33.33h-.33l0,10.48h.37l-.15.15,0,0-.19.19v-.37l-16.82,0h-.34l-10.95.09.33.37h10.28v.18h.68l17.19.06H447v-.6Zm-35.4-.32V412h0l0,3.17.11.13,0-3.32Zm34.72.34,0,10.48h.2l.16-10.48Z" style="fill: rgb(219, 219, 219); transform-origin: 429.3px 417.25px;" id="elwfv2qeindi" class="animable"></path><path d="M429.12,422.51q-5.5,0-11,.05l.05.06.33.37h10.28v-.14l.14.14.19.19h.35v-.66Zm0,0q-5.5,0-11,.05l.05.06.33.37h10.28v-.14l.14.14h.2v-.14h.34v-.34Z" style="fill: rgb(219, 219, 219); transform-origin: 423.79px 422.845px;" id="elw9y9bxddxf8" class="animable"></path><path d="M412,374.83l-.24.17-.26.19-.23.17v2.36h.37l-.17.17-.2.2v-.37h-3.13l-.23.19-.4.34-.23.2H412v-3.64Zm0,0-.24.17-.26.19-.23.17v2.36h.37l-.17.17-.2.2v-.37h-3.13l-.23.19-.4.34-.23.2H412v-3.64Z" style="fill: rgb(219, 219, 219); transform-origin: 409.64px 376.63px;" id="el8d9et1gujx3" class="animable"></path><path d="M411.94,389.6v-.66h-4.11v0c.06.2.11.39.17.58,0,0,0,0,0,0h3.23v-.34l.33.33h-.33l0,10.48h.37l-.15.15,0,0-.2.2v-.37h-1.7v.16l0,.39v.18H412v-.6Zm0,0h-.69l0,10.48h.37l-.15.15,0,0-.2.2v-.37h-1.7v.16l0,.39v.18H412v-.6Z" style="fill: rgb(219, 219, 219); transform-origin: 409.915px 394.865px;" id="el3b1xzcq6jq7" class="animable"></path><path d="M411.94,412v-.66h-1.88v0l0,.62v0h1.16v-.34l.33.33h-.33v2.84l.3.33.11.13.3.34Zm0,0h-.69v2.84l.3.33.11.13.3.34Z" style="fill: rgb(219, 219, 219); transform-origin: 411.01px 413.49px;" id="el0jab114jtqy" class="animable"></path><path d="M63.89,423H329.77s9.71,3.57-8.78,5.47-62.8,0-76.77,4.67c-9.92,3.31,15.28,16.68-25.76,16.68s-54.07-16.5-111.89-16.5c-22.5,0-42.68-10.32-42.68-10.32" style="fill: rgb(235, 235, 235); transform-origin: 198.104px 436.41px;" id="elfewqme6uza6" class="animable"></path><g id="eljlj3o8b90ko"><g style="opacity: 0.5; transform-origin: 203.01px 436.265px;" class="animable"><path d="M163.51,423l-36.73,11.07c-4.62-.37-9.57-.61-14.92-.71L146.24,423Z" style="fill: rgb(255, 255, 255); transform-origin: 137.685px 428.535px;" id="el700jy22fw1y" class="animable"></path><path d="M229.46,449.39l12.34-3.72C240.18,447.36,236.63,448.73,229.46,449.39Z" style="fill: rgb(255, 255, 255); transform-origin: 235.63px 447.53px;" id="elgoon73mw8q" class="animable"></path><path d="M331.44,423.86l-16.81,5.07c-5.49.3-12.11.44-19.11.56l21.56-6.5h12.69A8.67,8.67,0,0,1,331.44,423.86Z" style="fill: rgb(255, 255, 255); transform-origin: 313.48px 426.24px;" id="elyhh21bqiljl" class="animable"></path><path d="M242.47,439.63l-32.9,9.91a126.92,126.92,0,0,1-12.66-1.4l45.18-13.6C241.21,435.87,241.89,437.71,242.47,439.63Z" style="fill: rgb(255, 255, 255); transform-origin: 219.69px 442.04px;" id="elckdktn8iuno" class="animable"></path><path d="M297.69,423l-23,6.94c-8.32.26-16.14.68-22.25,1.5l28-8.44Z" style="fill: rgb(255, 255, 255); transform-origin: 275.065px 427.22px;" id="el6x7heap60ou" class="animable"></path><path d="M185.79,423l-42.92,12.93c-1.89-.29-3.85-.57-5.89-.82L177.16,423Z" style="fill: rgb(255, 255, 255); transform-origin: 161.385px 429.465px;" id="elgo8o0h0in8p" class="animable"></path><path d="M97.85,423l-19.14,5.76c-1.47-.44-2.85-.9-4.13-1.36L89.21,423Z" style="fill: rgb(255, 255, 255); transform-origin: 86.215px 425.88px;" id="elxh1pzgr9bgi" class="animable"></path></g></g></g><g id="freepik--Floor--inject-74" class="animable" style="transform-origin: 375px 446.24px;"><polygon points="51.93 422.99 132.7 422.75 213.47 422.66 375 422.49 536.53 422.66 617.3 422.75 698.07 422.99 617.3 423.23 536.53 423.32 375 423.49 213.47 423.32 132.7 423.23 51.93 422.99" style="fill: rgb(38, 50, 56); transform-origin: 375px 422.99px;" id="elfdb9zhji55q" class="animable"></polygon><rect x="55.28" y="459.41" width="639.43" height="10.58" style="fill: rgb(199, 199, 199); transform-origin: 374.995px 464.7px;" id="elsouklunimpc" class="animable"></rect><path d="M88.18,459.41a28.18,28.18,0,0,1,0,10.57,28.18,28.18,0,0,1,0-10.57Z" style="fill: rgb(38, 50, 56); transform-origin: 88.18px 464.695px;" id="eli5yocb4nkx" class="animable"></path><path d="M126.43,459.41a28.18,28.18,0,0,1,0,10.57,28.18,28.18,0,0,1,0-10.57Z" style="fill: rgb(38, 50, 56); transform-origin: 126.43px 464.695px;" id="elwo0dxr183ep" class="animable"></path><path d="M164.67,459.41a28.18,28.18,0,0,1,0,10.57,28.18,28.18,0,0,1,0-10.57Z" style="fill: rgb(38, 50, 56); transform-origin: 164.67px 464.695px;" id="elmz82xo7xwc" class="animable"></path><path d="M202.91,459.41a25.55,25.55,0,0,1,.5,5.29,24.22,24.22,0,0,1-.5,5.28,24.22,24.22,0,0,1-.5-5.28A25.55,25.55,0,0,1,202.91,459.41Z" style="fill: rgb(38, 50, 56); transform-origin: 202.91px 464.695px;" id="el1zswt6gtnczh" class="animable"></path><path d="M241.15,459.41a28.18,28.18,0,0,1,0,10.57,28.18,28.18,0,0,1,0-10.57Z" style="fill: rgb(38, 50, 56); transform-origin: 241.15px 464.695px;" id="elay11qls70h" class="animable"></path><path d="M279.39,459.41a28.18,28.18,0,0,1,0,10.57,28.18,28.18,0,0,1,0-10.57Z" style="fill: rgb(38, 50, 56); transform-origin: 279.39px 464.695px;" id="ely2qeouc63mm" class="animable"></path><path d="M317.64,459.41a28.18,28.18,0,0,1,0,10.57,28.18,28.18,0,0,1,0-10.57Z" style="fill: rgb(38, 50, 56); transform-origin: 317.64px 464.695px;" id="el558g30p7d7x" class="animable"></path><path d="M355.88,459.41a25.55,25.55,0,0,1,.5,5.29,24.85,24.85,0,0,1-.5,5.28,24.22,24.22,0,0,1-.5-5.28A24.89,24.89,0,0,1,355.88,459.41Z" style="fill: rgb(38, 50, 56); transform-origin: 355.88px 464.695px;" id="elqexmoxqh0uk" class="animable"></path><path d="M394.12,459.41a24.89,24.89,0,0,1,.5,5.29,24.22,24.22,0,0,1-.5,5.28,24.85,24.85,0,0,1-.5-5.28A25.55,25.55,0,0,1,394.12,459.41Z" style="fill: rgb(38, 50, 56); transform-origin: 394.12px 464.695px;" id="eluw4w3ee8jnb" class="animable"></path><path d="M432.36,459.41a28.18,28.18,0,0,1,0,10.57,28.18,28.18,0,0,1,0-10.57Z" style="fill: rgb(38, 50, 56); transform-origin: 432.36px 464.695px;" id="elxnpkpbjcfr" class="animable"></path><path d="M470.61,459.41a28.18,28.18,0,0,1,0,10.57,28.18,28.18,0,0,1,0-10.57Z" style="fill: rgb(38, 50, 56); transform-origin: 470.61px 464.695px;" id="eljpc479mw7if" class="animable"></path><path d="M508.85,459.41a28.18,28.18,0,0,1,0,10.57,28.18,28.18,0,0,1,0-10.57Z" style="fill: rgb(38, 50, 56); transform-origin: 508.85px 464.695px;" id="el4u98rm0m627" class="animable"></path><path d="M547.09,459.41a25.55,25.55,0,0,1,.5,5.29,24.22,24.22,0,0,1-.5,5.28,24.22,24.22,0,0,1-.5-5.28A25.55,25.55,0,0,1,547.09,459.41Z" style="fill: rgb(38, 50, 56); transform-origin: 547.09px 464.695px;" id="elvsjz361zf4g" class="animable"></path><path d="M585.33,459.41a28.18,28.18,0,0,1,0,10.57,28.18,28.18,0,0,1,0-10.57Z" style="fill: rgb(38, 50, 56); transform-origin: 585.33px 464.695px;" id="el8o98z8at7lm" class="animable"></path><path d="M623.57,459.41a28.18,28.18,0,0,1,0,10.57,28.18,28.18,0,0,1,0-10.57Z" style="fill: rgb(38, 50, 56); transform-origin: 623.57px 464.695px;" id="el3416iei0fyd" class="animable"></path><path d="M661.82,459.41a28.18,28.18,0,0,1,0,10.57,28.18,28.18,0,0,1,0-10.57Z" style="fill: rgb(38, 50, 56); transform-origin: 661.82px 464.695px;" id="elmp2h8op3lwn" class="animable"></path></g><g id="freepik--Dumpster--inject-74" class="animable" style="transform-origin: 203.335px 255.45px;"><rect x="55.44" y="229.2" width="299.64" height="159.63" style="fill: rgb(105, 104, 97); transform-origin: 205.26px 309.015px;" id="el5nbsc0vrt36" class="animable"></rect><g id="elbvtkqcxhkug"><g style="opacity: 0.1; transform-origin: 205.265px 308.938px;" class="animable"><path d="M69.24,377.06,68.84,343c-.15-11.36-.17-22.71-.26-34.07l-.2-34.06-.07-34.06v-.93h.93c21.82,0,43.64-.09,65.46,0l65.46.11,65.45.31,32.73.23,32.73.31-32.73.3-32.73.24-65.45.31-65.46.11c-21.82.06-43.64,0-65.46,0l.94-.93-.08,34.06-.19,34.06c-.09,11.36-.11,22.71-.26,34.07Z" id="elrvqmxvs4q2i" class="animable" style="transform-origin: 199.69px 308.45px;"></path><path d="M334.53,283c-10.77.22-21.54.32-32.31.49l-32.32.27c-21.55.17-43.09.15-64.64.24-21.54-.08-43.09-.07-64.63-.23l-32.32-.28c-10.77-.17-21.55-.26-32.32-.49,10.77-.23,21.55-.33,32.32-.49l32.32-.28c21.54-.16,43.09-.15,64.63-.23,21.55.08,43.09.07,64.64.23l32.32.28C313,282.65,323.76,282.74,334.53,283Z" id="elrhpwd4cw4w" class="animable" style="transform-origin: 205.26px 283px;"></path><path d="M334.53,334.9c-10.77.22-21.54.32-32.31.49l-32.32.27c-21.55.17-43.09.15-64.64.24-21.54-.08-43.09-.07-64.63-.23l-32.32-.28c-10.77-.17-21.55-.27-32.32-.49,10.77-.23,21.55-.33,32.32-.49l32.32-.28c21.54-.16,43.09-.15,64.63-.23,21.55.08,43.09.07,64.64.23l32.32.28C313,334.58,323.76,334.67,334.53,334.9Z" id="elxad7o3o50w9" class="animable" style="transform-origin: 205.26px 334.9px;"></path><path d="M341.28,240.81l.41,34.06c.15,11.36.17,22.71.26,34.06s.19,22.71.19,34.07l.08,34.06V378h-.94c-21.37,0-42.73.08-64.1,0l-64.1-.1L149,377.6l-32-.24-32.05-.3,32.05-.31,32-.23,64.1-.31,64.1-.11q32.06-.09,64.1,0l-.94.94.08-34.06c0-11.36.13-22.71.19-34.07s.11-22.7.26-34.06Z" id="elsc3vp877z8" class="animable" style="transform-origin: 213.585px 309.423px;"></path></g></g><polygon points="83.42 405.61 74.51 405.6 68.63 388.83 87.79 388.83 82.35 397.23 83.42 405.61" style="fill: rgb(38, 50, 56); transform-origin: 78.21px 397.22px;" id="el4b27axuulo6" class="animable"></polygon><path d="M91.69,410.7a12.29,12.29,0,1,1-12.27-12.3A12.28,12.28,0,0,1,91.69,410.7Z" style="fill: rgb(55, 71, 79); transform-origin: 79.4px 410.69px;" id="elevd3pervvul" class="animable"></path><path d="M86.12,410.69a6.72,6.72,0,1,1-6.7-6.72A6.7,6.7,0,0,1,86.12,410.69Z" style="fill: rgb(219, 219, 219); transform-origin: 79.4px 410.69px;" id="elcpj9862t654" class="animable"></path><path d="M79.55,406.61c0,1-.12,1.75-.26,1.75s-.26-.78-.26-1.75.12-1.74.26-1.74S79.55,405.65,79.55,406.61Z" style="fill: rgb(38, 50, 56); transform-origin: 79.29px 406.615px;" id="ely99r99oeeas" class="animable"></path><path d="M76.63,407.7c.68.69,1.15,1.32,1.05,1.42s-.73-.37-1.42-1.05-1.15-1.32-1.05-1.42S76,407,76.63,407.7Z" style="fill: rgb(38, 50, 56); transform-origin: 76.4449px 407.885px;" id="elbgea07smzlw" class="animable"></path><path d="M75.34,410.54c1,0,1.75.12,1.75.26s-.79.26-1.75.26-1.75-.12-1.75-.26S74.38,410.54,75.34,410.54Z" style="fill: rgb(38, 50, 56); transform-origin: 75.34px 410.8px;" id="elx7ff94864qe" class="animable"></path><path d="M76.43,413.46c.68-.69,1.32-1.16,1.42-1s-.37.73-1,1.41-1.32,1.15-1.42,1.05S75.75,414.14,76.43,413.46Z" style="fill: rgb(38, 50, 56); transform-origin: 76.6394px 413.681px;" id="elnppux66xbs" class="animable"></path><path d="M79.26,414.75c0-1,.12-1.75.27-1.75s.25.78.25,1.75-.12,1.74-.26,1.74S79.26,415.71,79.26,414.75Z" style="fill: rgb(38, 50, 56); transform-origin: 79.52px 414.745px;" id="eldthkmf69c1s" class="animable"></path><path d="M82.18,413.66c-.68-.69-1.15-1.32-1.05-1.42s.74.37,1.42,1.05,1.15,1.32,1,1.42S82.86,414.34,82.18,413.66Z" style="fill: rgb(38, 50, 56); transform-origin: 82.3473px 413.475px;" id="elpq6uja02sz" class="animable"></path><path d="M83.47,410.82c-1,0-1.74-.12-1.74-.26s.78-.26,1.74-.26,1.75.12,1.75.27S84.44,410.82,83.47,410.82Z" style="fill: rgb(38, 50, 56); transform-origin: 83.475px 410.56px;" id="elkw4gg8adti" class="animable"></path><path d="M82.38,407.91c-.68.68-1.32,1.15-1.42,1s.37-.74,1.06-1.42,1.31-1.15,1.42-1.05S83.06,407.22,82.38,407.91Z" style="fill: rgb(38, 50, 56); transform-origin: 82.201px 407.682px;" id="elxb25glqtoor" class="animable"></path><polygon points="327.1 405.61 336.01 405.6 341.9 388.83 322.73 388.83 328.17 397.23 327.1 405.61" style="fill: rgb(38, 50, 56); transform-origin: 332.315px 397.22px;" id="el2bf1tdhl919" class="animable"></polygon><path d="M318.84,410.7a12.28,12.28,0,1,0,12.26-12.3A12.28,12.28,0,0,0,318.84,410.7Z" style="fill: rgb(55, 71, 79); transform-origin: 331.12px 410.68px;" id="elkci80cbxeob" class="animable"></path><path d="M324.41,410.69a6.71,6.71,0,1,0,6.7-6.72A6.7,6.7,0,0,0,324.41,410.69Z" style="fill: rgb(219, 219, 219); transform-origin: 331.12px 410.68px;" id="elcn13atbsqjq" class="animable"></path><path d="M331,406.61c0,1,.12,1.75.26,1.75s.26-.78.26-1.75-.12-1.74-.27-1.74S331,405.65,331,406.61Z" style="fill: rgb(38, 50, 56); transform-origin: 331.26px 406.615px;" id="eleq17owknia" class="animable"></path><path d="M333.89,407.7c-.68.69-1.15,1.32-1.05,1.42s.74-.37,1.42-1.05,1.15-1.32,1.05-1.42S334.58,407,333.89,407.7Z" style="fill: rgb(38, 50, 56); transform-origin: 334.075px 407.885px;" id="elxz5pocnxyo" class="animable"></path><path d="M335.19,410.54c-1,0-1.75.12-1.75.26s.78.26,1.75.26,1.74-.12,1.74-.26S336.15,410.54,335.19,410.54Z" style="fill: rgb(38, 50, 56); transform-origin: 335.185px 410.8px;" id="el8um0nki0f5" class="animable"></path><path d="M334.09,413.46c-.68-.69-1.31-1.16-1.42-1s.38.73,1.06,1.41,1.32,1.15,1.42,1.05S334.78,414.14,334.09,413.46Z" style="fill: rgb(38, 50, 56); transform-origin: 333.909px 413.681px;" id="elc79azvpl44" class="animable"></path><path d="M331.26,414.75c0-1-.12-1.75-.26-1.75s-.26.78-.26,1.75.12,1.74.26,1.74S331.26,415.71,331.26,414.75Z" style="fill: rgb(38, 50, 56); transform-origin: 331px 414.745px;" id="ele7z96nluzl" class="animable"></path><path d="M328.34,413.66c.69-.69,1.16-1.32,1.05-1.42s-.73.37-1.41,1.05-1.15,1.32-1.05,1.42S327.66,414.34,328.34,413.66Z" style="fill: rgb(38, 50, 56); transform-origin: 328.161px 413.475px;" id="elmfzwt2sd7ih" class="animable"></path><path d="M327.05,410.82c1,0,1.75-.12,1.75-.26s-.78-.26-1.75-.26-1.74.12-1.74.27S326.09,410.82,327.05,410.82Z" style="fill: rgb(38, 50, 56); transform-origin: 327.055px 410.56px;" id="elutu0aumwd9" class="animable"></path><path d="M328.14,407.91c.69.68,1.32,1.15,1.42,1s-.37-.74-1.05-1.42-1.32-1.15-1.42-1.05S327.46,407.22,328.14,407.91Z" style="fill: rgb(38, 50, 56); transform-origin: 328.325px 407.682px;" id="elv8ff4o3qjz" class="animable"></path><polygon points="316.93 195.11 93.55 195.11 55.44 229.2 355.03 229.2 316.93 195.11" style="fill: rgb(105, 104, 97); transform-origin: 205.235px 212.155px;" id="elclwa598n08q" class="animable"></polygon><g id="elxgyzmh2fzoe"><polygon points="314.1 198.16 92.57 198.16 61.28 226.15 345.39 226.15 314.1 198.16" style="opacity: 0.3; transform-origin: 203.335px 212.155px;" class="animable"></polygon></g><polygon points="205.26 229.2 51.59 229.2 89.69 194.32 205.26 194.32 205.26 229.2" style="fill: rgb(55, 71, 79); transform-origin: 128.425px 211.76px;" id="el3i73swymvp3" class="animable"></polygon><rect x="51.59" y="229.2" width="153.65" height="5.08" style="fill: rgb(38, 50, 56); transform-origin: 128.415px 231.74px;" id="eltsiskc7qq1g" class="animable"></rect><rect x="195.19" y="197.16" width="2.22" height="28.72" style="fill: rgb(38, 50, 56); transform-origin: 196.3px 211.52px;" id="elsokbj222ps" class="animable"></rect><polygon points="185.78 225.88 183.56 225.88 184.51 197.16 186.73 197.16 185.78 225.88" style="fill: rgb(38, 50, 56); transform-origin: 185.145px 211.52px;" id="el6x71hkxcngw" class="animable"></polygon><polygon points="173.2 225.88 170.99 225.88 173.84 197.16 176.06 197.16 173.2 225.88" style="fill: rgb(38, 50, 56); transform-origin: 173.525px 211.52px;" id="elweg695pjgb" class="animable"></polygon><polygon points="160.63 225.88 158.41 225.88 163.17 197.16 165.39 197.16 160.63 225.88" style="fill: rgb(38, 50, 56); transform-origin: 161.9px 211.52px;" id="elpbo53booep" class="animable"></polygon><polygon points="147.1 225.88 144.88 225.88 152.5 197.16 154.72 197.16 147.1 225.88" style="fill: rgb(38, 50, 56); transform-origin: 149.8px 211.52px;" id="elgm36vdik1a" class="animable"></polygon><polygon points="133.57 225.88 131.35 225.88 141.83 197.16 144.04 197.16 133.57 225.88" style="fill: rgb(38, 50, 56); transform-origin: 137.695px 211.52px;" id="elagjl40p5wmn" class="animable"></polygon><polygon points="118.13 225.88 115.91 225.88 130.2 197.16 132.42 197.16 118.13 225.88" style="fill: rgb(38, 50, 56); transform-origin: 124.165px 211.52px;" id="elnk0qp3y93c" class="animable"></polygon><polygon points="103.65 225.88 101.43 225.88 119.53 197.16 121.75 197.16 103.65 225.88" style="fill: rgb(38, 50, 56); transform-origin: 111.59px 211.52px;" id="elw6efvi0yb1" class="animable"></polygon><polygon points="87.26 225.88 85.05 225.88 107.91 197.16 110.13 197.16 87.26 225.88" style="fill: rgb(38, 50, 56); transform-origin: 97.59px 211.52px;" id="elb3yi8nhreo" class="animable"></polygon><polygon points="71.83 225.88 69.61 225.88 97.24 197.16 99.45 197.16 71.83 225.88" style="fill: rgb(38, 50, 56); transform-origin: 84.53px 211.52px;" id="elcf3ax0dd6k" class="animable"></polygon><polygon points="205.24 94.73 334.31 94.73 317.09 194.32 205.24 194.32 205.24 94.73" style="fill: rgb(38, 50, 56); transform-origin: 269.775px 144.525px;" id="elktwz9y5q8y" class="animable"></polygon><g id="elf9rhqb8qbfi"><rect x="205.26" y="87.92" width="129.05" height="6.81" style="fill: rgb(55, 71, 79); transform-origin: 269.785px 91.325px; transform: rotate(180deg);" class="animable"></rect></g><g id="els59uyw3g458"><rect x="212.84" y="104.21" width="2.15" height="82" style="fill: rgb(55, 71, 79); transform-origin: 213.915px 145.21px; transform: rotate(180deg);" class="animable"></rect></g><polygon points="224.09 104.21 226.24 104.21 225.32 186.21 223.17 186.21 224.09 104.21" style="fill: rgb(55, 71, 79); transform-origin: 224.705px 145.21px;" id="elekwmf7sf8aa" class="animable"></polygon><polygon points="235.28 104.21 237.43 104.21 235.65 186.21 233.5 186.21 235.28 104.21" style="fill: rgb(55, 71, 79); transform-origin: 235.465px 145.21px;" id="elr0uobz9lsm" class="animable"></polygon><polygon points="247.46 104.21 249.6 104.21 245.97 186.21 243.83 186.21 247.46 104.21" style="fill: rgb(55, 71, 79); transform-origin: 246.715px 145.21px;" id="elwhz88ousfnk" class="animable"></polygon><polygon points="259.57 104.21 261.71 104.21 256.3 186.21 254.16 186.21 259.57 104.21" style="fill: rgb(55, 71, 79); transform-origin: 257.935px 145.21px;" id="eliqtibvr6obo" class="animable"></polygon><polygon points="271.68 104.21 273.82 104.21 266.63 186.21 264.48 186.21 271.68 104.21" style="fill: rgb(55, 71, 79); transform-origin: 269.15px 145.21px;" id="elv8dnhfh45x" class="animable"></polygon><polygon points="284.65 104.21 286.8 104.21 277.88 186.21 275.73 186.21 284.65 104.21" style="fill: rgb(55, 71, 79); transform-origin: 281.265px 145.21px;" id="elt9buznk2l8k" class="animable"></polygon><polygon points="296.7 104.21 298.85 104.21 288.21 186.21 286.06 186.21 296.7 104.21" style="fill: rgb(55, 71, 79); transform-origin: 292.455px 145.21px;" id="elfnef0iq2w5c" class="animable"></polygon><polygon points="308.63 104.21 310.78 104.21 299.46 186.21 297.31 186.21 308.63 104.21" style="fill: rgb(55, 71, 79); transform-origin: 304.045px 145.21px;" id="elv2s7u3djkz" class="animable"></polygon><polygon points="319.64 104.21 321.79 104.21 309.79 186.21 307.64 186.21 319.64 104.21" style="fill: rgb(55, 71, 79); transform-origin: 314.715px 145.21px;" id="el8dypan3qu99" class="animable"></polygon><rect x="218.06" y="193.75" width="10.51" height="1.8" style="fill: rgb(38, 50, 56); transform-origin: 223.315px 194.65px;" id="elj2a8u56ioll" class="animable"></rect><rect x="297.31" y="193.75" width="10.51" height="1.8" style="fill: rgb(38, 50, 56); transform-origin: 302.565px 194.65px;" id="elacdt45rf81t" class="animable"></rect></g><g id="freepik--Garbage--inject-74" class="animable" style="transform-origin: 149.464px 351.123px;"><path d="M120.9,278.32c-1.23,3.64-4,6.82-6.22,9.87-1.82,2.45-3.63,5.5-6.62,6.6-1.68.6-3.62.85-4.23-1.1-.82-2.63-.46-5.67.08-8.52.13-2.25.31-4.49.59-6.7.32-2.57,1.81-3.72,4.32-4.24a32.37,32.37,0,0,1,5.29-.44c1.58-.05,4.59-.51,6.06.07C122,274.59,121.41,276.79,120.9,278.32Z" style="fill: rgb(38, 50, 56); transform-origin: 112.38px 284.397px;" id="ely48jsovtnxm" class="animable"></path><path d="M176.1,405.35c-.76,3.58-3.08,7.2-4.92,10.32a61.25,61.25,0,0,1-5.75,8.44c-2.11,2.51-4.29,3.08-7.46,3.21-4.08.17-8.21.23-12.29.1-8.14-.24-16-2-24-3.21A94.24,94.24,0,0,0,94.31,424c-7.67,1.06-15.38,2.83-23.16,1.91-5.62-.68-12-2.8-15.59-7.51-4.12-5.46.45-10.4,2.87-15.4a18.8,18.8,0,0,0,1.1-3h0c.11-.39.2-.76.29-1.16h0c1.31-6.17,0-12.91,2.4-19,1.45-3.74,3.38-7.29,5.15-10.88,1.85-3.75,4.46-7.7,5.25-11.84.83-4.32-.45-8.81.07-13.19a35.79,35.79,0,0,1,2.68-9.73c3-7.14,7.57-13.48,11.87-19.86,2.9-4.31,5.75-8.64,8.67-12.95,1.45-3.07,3-6.09,5.37-8.36-2.75-1.68-5.88-3.67-7.81-6.14-1.74-2.21-.88-4.09.35-6.34s6.7-13.12,9.79-7.14a28.18,28.18,0,0,1,1.38,4.75c.52,1.76.93,4.82,2.11,6.22,2.24,2.65,3.18-.7,4.92-1.31,1.13-.38,2.15.24,3.24.63,1.71.63,5.31,1,5.49,3.34a5.74,5.74,0,0,1-.87,2.69c-.54,1-2.31,2.62-2.78,4a20.4,20.4,0,0,1,2.84,3.36c2.62,3.86,4.25,8.29,7.18,12,2.65,3.31,6,6,9.15,8.74,5.39,4.66,11.08,10.19,12,17.64.37,2.9-.42,6.15.14,9.06a8.11,8.11,0,0,0,.54,1.78,8.3,8.3,0,0,0,.41.78c1.69,2.77,5,4.23,7.44,6.18a37.19,37.19,0,0,1,11.23,14.89c2.72,6.52,2.78,12.69,2.61,19.61a13.29,13.29,0,0,0,1.16,5.8c.26.59.55,1.17.86,1.76.6,1.09,1.26,2.2,1.95,3.41A9.4,9.4,0,0,1,176.1,405.35Z" style="fill: rgb(55, 71, 79); transform-origin: 115.053px 349.563px;" id="el65e9c0ti98h" class="animable"></path><path d="M99.52,411.13c-8.63-1.41-17.36-.62-26-1.83-6.3-.89-10.42-4.58-14-9.28h0c.11-.39.2-.76.29-1.16a49.92,49.92,0,0,0,6.73,5.8,24.2,24.2,0,0,0,10,3.51c7.63,1.16,15.55.57,23,2.67C99.8,410.88,99.72,411.16,99.52,411.13Z" style="fill: rgb(38, 50, 56); transform-origin: 79.6123px 404.996px;" id="el6ukw0kjeh5n" class="animable"></path><path d="M160.61,402.15c-6.27,3.3-11.62,8.24-17.71,11.84-3.29,1.95-6.31,2-10,1.73s-7.65-.44-11.47-.7c-.28,0-.27.4,0,.44,4.21.51,8.4,1.14,12.62,1.63a14,14,0,0,0,8.43-1.12c3.34-1.68,6.35-4.24,9.37-6.42A97.71,97.71,0,0,0,161,402.7C161.33,402.42,161,402,160.61,402.15Z" style="fill: rgb(38, 50, 56); transform-origin: 141.179px 409.713px;" id="elp825guurei" class="animable"></path><path d="M172.69,395.27a50.83,50.83,0,0,0-8.37,8.84c-3,3.94-6,8.52-10.63,10.69-.22.09-.42-.22-.2-.34,3.24-1.57,5.17-4.82,7.17-7.69,1.53-2.19,3-4.38,4.67-6.48a38.13,38.13,0,0,1,6.5-6.78C172.09,394.1,172.38,394.68,172.69,395.27Z" style="fill: rgb(38, 50, 56); transform-origin: 163.042px 404.163px;" id="elp3fh0a1c0mq" class="animable"></path><path d="M149,346.25a33.28,33.28,0,0,1-3.7,6.14,21.23,21.23,0,0,1-12.05,7.23.09.09,0,1,1,0-.18,23.29,23.29,0,0,0,12.75-10.33c.88-1.53,1.66-3.13,2.51-4.64A8.11,8.11,0,0,0,149,346.25Z" style="fill: rgb(38, 50, 56); transform-origin: 141.079px 352.045px;" id="el7m9wh9dp06d" class="animable"></path><path d="M122,309c-1.52-2.37-1.72-5.33-3-7.84a26.08,26.08,0,0,0-4.32-6c.72-.3,1.43-.66,2.08-1,.27-.13.07-.51-.19-.46-1.92.39-3.06,1.12-5.18,1-.81-.06-1.55-.31-2.39-.32a32.22,32.22,0,0,1-7.38-1.27.25.25,0,0,0-.19.45c.33.2.64.37,1,.54a19.66,19.66,0,0,0-4.1,7.55c0,.11.14.19.19.08a22.44,22.44,0,0,1,2.66-4.57,9.68,9.68,0,0,0,1.82-2.75c.36.19.72.36,1.07.52a9.8,9.8,0,0,0-1.2,2.32,27.62,27.62,0,0,0-3,5.46c-1.5,3.61-1.27,7.65-2.9,11.16,0,.09.09.18.14.08,1.57-3,1.87-6.48,3.3-9.57s3.37-5.92,4.75-9a8.19,8.19,0,0,0,3.1.32,14.72,14.72,0,0,1,1.88,0c-1.12,3.44.46,6.66,1.07,10.09a2.58,2.58,0,0,0,.28,1.2.74.74,0,0,0,1,.34c.45-.28.5-1.08.5-1.54a3.86,3.86,0,0,0-.47-1.86.08.08,0,0,0-.14.06c.23.78.39,2.64-.3,2.49-.5-.11-.81-3.78-1.17-5.11a9,9,0,0,1-.42-3.74c0-.67.15-1.26.16-1.91a13.66,13.66,0,0,0,2.48-.07,6.78,6.78,0,0,0,.86-.22,62.12,62.12,0,0,1,4.45,6.61c1.21,2.36,1.78,4.92,3.39,7.07C121.94,309.2,122.1,309.11,122,309Z" style="fill: rgb(38, 50, 56); transform-origin: 109.501px 303.55px;" id="el42grl6ar23" class="animable"></path><path d="M122.75,367.91c-9-1.22-17.64,3.07-26.68,2.37-4.86-.38-8.59-2.3-12.33-5.31-3-2.4-5.67-5.25-9.14-6.94a.17.17,0,0,0-.17.3c6.91,4.77,10.49,12.93,19.59,14,9.66,1.18,18.89-4.32,28.63-3.73C123.06,368.66,123.16,368,122.75,367.91Z" style="fill: rgb(38, 50, 56); transform-origin: 98.6777px 365.252px;" id="elzrimkely9pa" class="animable"></path><path d="M135.87,373.1a89.07,89.07,0,0,0-19,.43c-6.06.66-12.43,3-18.46,1.36-.15,0-.2.17-.07.23,5.4,2.23,11,1.14,16.53.3,7-1.05,13.92-1.32,21-1.82A.25.25,0,0,0,135.87,373.1Z" style="fill: rgb(38, 50, 56); transform-origin: 117.191px 374.612px;" id="eldwkolr68kzu" class="animable"></path><path d="M159.74,336.76c-1.28,1.07-3.85,3.37-3.72,5.9s3.9,4.59,3.52,5.67S141.25,380.54,142.17,390s8.93,16.25,9.06,18.78,2.24,9.44,7,12.78,28.38,9,31.09,9.05,27.77-6.2,32.13-7.2S237,412.61,238,411.18s.95-12.81,1.32-13.35,4.43-4.62,5.57-8-5.26-19.43-8.11-21.65-8.9-12.72-9.06-14.08-.1-4.57-.1-4.57,3-1.44,3.87-4.13-5.54-8.91-10.24-11.17-9.32-1.92-16.45-5.44-20.53-12-24.58-13.05-19.36-1.23-21.58,1.21-5.9,12-5.52,13.5S159.74,336.76,159.74,336.76Z" style="fill: rgb(69, 90, 100); transform-origin: 193.58px 372.809px;" id="elo0ak05drgnb" class="animable"></path><path d="M226.18,343.08a10.46,10.46,0,0,1-5.44,1.6,41.51,41.51,0,0,1-10.11-.87l-.49-.09-.31-.06c-.69-.14-1.39-.26-2.09-.37-2.19-.36-4.42-.62-6.64-.87l-2.37-.27c-.77-.08-1.54-.17-2.3-.27l-1.09-.16c-1.18-.16-2.34-.34-3.5-.57-.59-.11-1.18-.23-1.76-.37a38.56,38.56,0,0,1-3.82-1.06c-1.43-.48-2.87-1-4.31-1.6-.57-.23-1.14-.46-1.71-.71-1.47-.64-2.94-1.33-4.36-2.07a51.32,51.32,0,0,1-7.72-4.83,10.89,10.89,0,0,1-3.35-3.68,5.24,5.24,0,0,1-.47-2.88c.34-3.14,2.21-4.87,6.11-5.32,3.31-.39,6.79-.63,10,.41,3.47,1.12,16.77,8.18,20.37,10.11,4.36,2.34,8.43,2.88,13.1,4.18.56.15,1.16.35,1.79.58,3.17,1.14,7,3.15,9.25,5.7a8.44,8.44,0,0,1,1.62,2.49A.89.89,0,0,1,226.18,343.08Z" style="fill: rgb(38, 50, 56); transform-origin: 195.455px 331.502px;" id="el0th01h5al1oq" class="animable"></path><path d="M210.63,343.81l-.49-.09-.31-.06c-.69-.14-1.39-.26-2.09-.37-2.19-.36-4.42-.62-6.64-.87l-2.37-.27c-.77-.08-1.54-.17-2.3-.27l-1.09-.16c-1.18-.16-2.34-.34-3.5-.57.29-.19.68-.42,1.15-.68.83-.47,1.89-1,2.95-1.52l.1-.05.76-.36c1-.48,2-.91,2.71-1.16a5.88,5.88,0,0,1,.8-.26,1.67,1.67,0,0,1,.52,0c2.25.07,8.72,1.91,9.07,2.47A6.86,6.86,0,0,1,210.63,343.81Z" style="fill: rgb(105, 104, 97); transform-origin: 201.272px 340.455px;" id="elbvjac562ftf" class="animable"></path><path d="M210.14,343.72l-.31-.06c-.69-.14-1.39-.26-2.09-.37.65-1.81,1.49-3.15,1.9-3.06S210.27,341.83,210.14,343.72Z" style="fill: rgb(255, 255, 255); transform-origin: 208.959px 341.973px;" id="elvqgf3j2dyap" class="animable"></path><path d="M197.22,340.1a11.76,11.76,0,0,1,1.51,2c-.77-.08-1.54-.17-2.3-.27a4,4,0,0,0-1.05-.67,8.92,8.92,0,0,0-2.39-.74c.83-.47,1.89-1,2.95-1.52l.05,0A10.81,10.81,0,0,1,197.22,340.1Z" style="fill: rgb(255, 255, 255); transform-origin: 195.86px 340.5px;" id="elbcwwp7ouk4h" class="animable"></path><path d="M201.1,342.42l-2.37-.27c-.77-.08-1.54-.17-2.3-.27l-1.09-.16c-1.18-.16-2.34-.34-3.5-.57-.59-.11-1.18-.23-1.76-.37a38.56,38.56,0,0,1-3.82-1.06c-1.43-.48-2.87-1-4.31-1.6-.57-.23-1.14-.46-1.71-.71-1.47-.64-2.94-1.33-4.36-2.07a51.32,51.32,0,0,1-7.72-4.83,10.89,10.89,0,0,1-3.35-3.68,6.58,6.58,0,0,1,2.42-.53c1,0,2.61.6,3.36-.19.31-.31.4-1.26.6-1.68a4.79,4.79,0,0,1,2.61-2.49c2.42-.89,4.6.2,6.64,1.46l.53.33c.61.39,1.22.79,1.81,1.13a6.44,6.44,0,0,0,1.58.63h0a14.81,14.81,0,0,0,2.26.44l.15,0c2.48.32,5.07.48,6.6,2.39a5.14,5.14,0,0,1,.89,3.71c-.08,1.64-.36,3.15.57,4.62a6.28,6.28,0,0,0,1.62,1.63,4.15,4.15,0,0,0,.34.24c.34.25.69.48,1,.71A10.75,10.75,0,0,1,201.1,342.42Z" style="fill: rgb(235, 235, 235); transform-origin: 182.955px 332.018px;" id="elenlr6mgxz29" class="animable"></path><path d="M192.53,337.2a7,7,0,0,1-2.45,3.58,38.56,38.56,0,0,1-3.82-1.06c-1.43-.48-2.87-1-4.31-1.6-.57-.23-1.14-.46-1.71-.71-1.47-.64-2.94-1.33-4.36-2.07-.77-2.26-1.51-8.63-1.15-9.16,1.17-1.62,3.46-2.44,5.71-2.78,2.85-.44,5.62-.12,5.88.31a6.41,6.41,0,0,1,.39,1.73c0,.16,0,.34.07.51.32,2.25.61,5.35.8,5.6l.21.22C188.77,332.79,192.72,336.57,192.53,337.2Z" style="fill: rgb(105, 104, 97); transform-origin: 183.586px 331.985px;" id="el588ylbdp6nm" class="animable"></path><path d="M175.43,326.16c.11.54,2.73.82,5.36.38s5.52-1.66,5-2.62c-.29-.56-3.3-.59-5.91,0S175.34,325.68,175.43,326.16Z" style="fill: rgb(255, 255, 255); transform-origin: 180.639px 325.123px;" id="el5k4y12iy58j" class="animable"></path><path d="M187.79,331.77l-.14.14c-1.93,1.72-4.17,2.93-5.4,5.35a4,4,0,0,0-.3.86c-.57-.23-1.14-.46-1.71-.71,1.12-2.35,3.11-3.94,4.46-6.15a14.7,14.7,0,0,0,1.93-5.33c0-.16.06-.33.08-.49,0,.16,0,.34.07.51.32,2.25.61,5.35.8,5.6Z" style="fill: rgb(255, 255, 255); transform-origin: 184.015px 331.78px;" id="eluxlfxznxc8h" class="animable"></path><g id="elm2izgicbv99"><path d="M225.24,339.55l-.27.06-.55.11s-2.34,3.88-3.68,5a41.51,41.51,0,0,1-10.11-.87l-.49-.09-.31-.06c-.69-.14-1.39-.26-2.09-.37-2.19-.36-4.42-.62-6.64-.87l-2.37-.27c-.77-.08-1.54-.17-2.3-.27l-1.09-.16c0-.17,0-.34,0-.51A6.7,6.7,0,0,1,196,339a.41.41,0,0,1,0-.09,2.35,2.35,0,0,1,.42-.6,1.28,1.28,0,0,1,.66-.41l2.39-.51,1.32-.28,8.67-1.86a2.16,2.16,0,0,0,.33.68.2.2,0,0,0,.37-.08,2.49,2.49,0,0,0,.07-.76l.72-.16a2.39,2.39,0,0,0,.33.68.22.22,0,0,0,.39-.08,3.5,3.5,0,0,0,0-.76l.73-.16a2.16,2.16,0,0,0,.33.68.21.21,0,0,0,.38-.08,2.93,2.93,0,0,0,.06-.76l.73-.16a2.53,2.53,0,0,0,.33.68.21.21,0,0,0,.38-.08,5.21,5.21,0,0,0,.07-.77l.95-.2,2.08-.45c1.12-.23,5.65,2.88,5.93,3.07h0l.83-.18.18.85Z" style="fill: rgb(235, 235, 235); opacity: 0.8; transform-origin: 210.29px 339.103px;" class="animable"></path></g><g id="elqhp31ikekgs"><rect x="223.44" y="336.7" width="4.96" height="2.08" rx="0.51" style="fill: rgb(55, 71, 79); transform-origin: 225.92px 337.74px; transform: rotate(77.92deg);" class="animable"></rect></g><path d="M167.31,414.11c-2.77-.61-6.1-.51-8.7-1.72s-4.79-3.71-7.41-5.15c-.26-.14-.58.14-.37.4,1.82,2.26,4.46,5.17,7.17,6.34s6.48.7,9.33.57C167.61,414.54,167.54,414.16,167.31,414.11Z" style="fill: rgb(38, 50, 56); transform-origin: 159.137px 410.978px;" id="elyp67bg8jn6e" class="animable"></path><path d="M238.86,398c-3.76,2.06-6.53,5.64-10.55,7.33s-9.91,1.18-14.2.82c-.11,0-.11.16,0,.18,4.72.6,10.25,2.45,14.88.6,3.8-1.52,7.82-5.38,10.2-8.6C239.35,398.12,239.06,397.89,238.86,398Z" style="fill: rgb(38, 50, 56); transform-origin: 226.632px 402.852px;" id="elqdgo8ue2eie" class="animable"></path><path d="M216,417.63c-5.75,1.41-11.29,3.54-16.9,5.39s-11.77.54-17.54-.26c-.29,0-.43.37-.13.46,5.28,1.57,11.26,3.67,16.77,2.08a117,117,0,0,0,18-7.16C216.46,418,216.25,417.55,216,417.63Z" style="fill: rgb(38, 50, 56); transform-origin: 198.791px 421.744px;" id="el92etxp1kdws" class="animable"></path><path d="M188.32,395.41a55.09,55.09,0,0,0-8.87-5.26c-3.11-1.35-6.31-2.48-9.45-3.75-1.67-.67-4-1.36-5.3-2.72s-1.89-3.72-2.49-5.55a66.05,66.05,0,0,1-2.64-10.83c0-.24-.44-.18-.41.05a87.21,87.21,0,0,0,2.07,11.56c.81,3.06,1.38,5.9,4.33,7.5,7.14,3.88,15.58,5.19,22.46,9.51C188.34,396.12,188.62,395.62,188.32,395.41Z" style="fill: rgb(38, 50, 56); transform-origin: 173.803px 381.556px;" id="el6oi2pqa18h7" class="animable"></path><path d="M202.39,350.61c-14.78-1.17-28.07-8.11-41.52-13.79-.06,0-.12.06-.06.1,12.61,7.75,26.62,13.44,41.58,13.79C202.46,350.71,202.46,350.62,202.39,350.61Z" style="fill: rgb(38, 50, 56); transform-origin: 181.614px 343.765px;" id="elojxtfhr6et" class="animable"></path><path d="M226.54,349.89a40.71,40.71,0,0,1-16.4,1.25c-.11,0-.13.17,0,.18,5.39.79,11.72,2.24,16.55-1.15C226.79,350.08,226.72,349.84,226.54,349.89Z" style="fill: rgb(38, 50, 56); transform-origin: 218.393px 351.099px;" id="el4nz096re2cf" class="animable"></path><path d="M190.4,358.92c-5.27-1.52-10.75-2.35-16-4a63.19,63.19,0,0,1-14.31-7c-.11-.07-.21.11-.1.18,4.13,2.86,8.34,5.91,13.13,7.59,5.39,1.89,11.51,2.8,17.15,3.66C190.53,359.33,190.64,359,190.4,358.92Z" style="fill: rgb(38, 50, 56); transform-origin: 175.238px 353.627px;" id="el4pz8lka2844" class="animable"></path></g><g id="freepik--Door--inject-74" class="animable" style="transform-origin: 612.505px 246.915px;"><rect x="538.34" y="70.84" width="148.35" height="330.16" style="fill: rgb(55, 71, 79); transform-origin: 612.515px 235.92px;" id="el6psta7ihc2p" class="animable"></rect><polygon points="686.68 70.84 538.34 70.84 538.34 92.05 686.68 83.78 686.68 70.84" style="fill: rgb(38, 50, 56); transform-origin: 612.51px 81.445px;" id="elhnl1qqis5hh" class="animable"></polygon><rect x="679.09" y="70.84" width="7.6" height="330.16" style="fill: rgb(69, 90, 100); transform-origin: 682.89px 235.92px;" id="el54lzccfazbh" class="animable"></rect><rect x="526.95" y="401.01" width="171.11" height="21.98" style="fill: rgb(219, 219, 219); transform-origin: 612.505px 412px;" id="ely3mk6v9p0a" class="animable"></rect><rect x="657.3" y="226.17" width="12.36" height="33.83" style="fill: rgb(105, 104, 97); transform-origin: 663.48px 243.085px;" id="elj41v7iqr2" class="animable"></rect><g id="eljqkhurgng3p"><ellipse cx="663.48" cy="232.59" rx="4.98" ry="5.13" style="opacity: 0.2; transform-origin: 663.48px 232.59px;" class="animable"></ellipse></g></g><g id="freepik--Lamp--inject-74" class="animable" style="transform-origin: 612.72px 229.415px;"><polygon points="629.62 66.42 596.55 66.42 590.77 47.17 634.25 47.17 629.62 66.42" style="fill: rgb(69, 90, 100); transform-origin: 612.51px 56.795px;" id="elimqwk9dg7d" class="animable"></polygon><path d="M622.58,64.16H603.16a3.82,3.82,0,0,1-3.66-2.69l-2.17-7.24a3.76,3.76,0,0,1,3.66-4.8h23.33A3.76,3.76,0,0,1,628,54l-1.74,7.24A3.81,3.81,0,0,1,622.58,64.16Z" style="fill: rgb(105, 104, 97); transform-origin: 612.636px 56.7949px;" id="elmvnx3umlp9" class="animable"></path><path d="M597.25,39.81h30.52a6.48,6.48,0,0,1,6.48,6.48v.87a0,0,0,0,1,0,0H590.77a0,0,0,0,1,0,0v-.87A6.48,6.48,0,0,1,597.25,39.81Z" style="fill: rgb(55, 71, 79); transform-origin: 612.51px 43.485px;" id="elj1etett5du" class="animable"></path><g id="elhr3bg8h8aa"><polygon points="682.13 401.36 543.3 401.36 597.3 52.22 628.13 52.22 682.13 401.36" style="fill: rgb(105, 104, 97); opacity: 0.5; transform-origin: 612.715px 226.79px;" class="animable"></polygon></g><g id="el0p7cu8qkd5j"><path d="M689.45,401.36c-.26,9.76-34.51,17.66-76.73,17.66s-76.48-7.9-76.73-17.66Z" style="fill: rgb(105, 104, 97); opacity: 0.5; transform-origin: 612.72px 410.19px;" class="animable"></path></g></g><g id="freepik--Shadow--inject-74" class="animable" style="transform-origin: 433.61px 447.53px;"><ellipse cx="433.61" cy="447.53" rx="104.93" ry="9.12" style="fill: rgb(235, 235, 235); transform-origin: 433.61px 447.53px;" id="elqv1nwvt3a5" class="animable"></ellipse></g><g id="freepik--Character--inject-74" class="animable" style="transform-origin: 435.168px 266.954px;"><path d="M473.26,147.32c-3.45,1.3-6.11,4.2-9.27,6.08-1.32.78-2.61,1.43-4,.71a14.1,14.1,0,0,1-1.71-1.28,4.8,4.8,0,0,0-4-.61c-2,.48-3.79,1.87-5.68,2.8a11.25,11.25,0,0,1-4.89,1.24,14.1,14.1,0,0,1-8.94-3.23c-1.56-1.23-2.8-2.84-4.29-4.15s-11-4.87-12-10.59c-.62-3.63,0-7.61,4.8-12.23.95-.93,2-1.79,2.29-3.18a7.64,7.64,0,0,0-.36-3.39,6.49,6.49,0,0,1-.15-3.85c.48-1.3,1.63-2.07,2.57-3,1.76-1.66,1.8-4.39.93-7.84a9.79,9.79,0,0,1,2-8.38,20.51,20.51,0,0,1,4-3.43A8.18,8.18,0,0,0,438,87.31c.62-3.25,2.15-5.57,5.27-6.7a13.93,13.93,0,0,1,8.54-.55,14.94,14.94,0,0,1,9.85-.93c3.05.77,5.36,3.16,7.46,5.43,1.88,2,3.55,4.18,3.31,7.19-.14,1.74-.77,3.41-.9,5.14-.16,2.21.9,3.75,2.2,5.32a13.09,13.09,0,0,1,3.41,7.69c.09,2.39-2.65,5.74-.36,9.53,2,3.35,5.77,7.37,6.41,11.36C485.17,143.14,476.56,146.07,473.26,147.32Z" style="fill: rgb(38, 50, 56); transform-origin: 450.881px 117.475px;" id="el0s7rlbw9az7" class="animable"></path><path d="M432.78,148.83c-4.5-1.46-10.93-1.69-13.19-5.94a15,15,0,0,0,6.51,3.29c.07,0,.08-.1,0-.11a13.09,13.09,0,0,1-6.91-4,8.69,8.69,0,0,1-.43-3.56c.22-3.63,2-6.24,3.9-9.13a19.38,19.38,0,0,0,1.84-3.52,6.64,6.64,0,0,0,.62-.94c1.25-2.3.58-4.83-.19-7.12,0,0-.06,0-.05,0a15.68,15.68,0,0,1,.64,4.14,22.54,22.54,0,0,1-1,3.12,17.86,17.86,0,0,1-3.43,3.3c-2,1.73-3.95,4-4.42,6.72a8.1,8.1,0,0,0,2.14,7.1c1.87,5.56,9.23,5.54,13.86,6.82C432.81,149,432.88,148.86,432.78,148.83ZM417.93,140c-1.7-3.57-.6-7.13,2-9.92,1.2-1.27,2.77-2.31,4-3.61-.15.31-.3.61-.47.92-1,1.76-2.27,3.27-3.25,5a13.31,13.31,0,0,0-1.64,8.68.43.43,0,0,1,0,.11A10.48,10.48,0,0,1,417.93,140Z" style="fill: rgb(38, 50, 56); transform-origin: 424.681px 133.4px;" id="ell7vsmhc7nv" class="animable"></path><path d="M484.79,130.57a13,13,0,0,0-3.8-6.47,6,6,0,0,0,.72.36c.06,0,.05,0,0-.06-3.14-1.86-4.1-5.08-3.37-8.71.47-2.35,1.34-4.8.88-7.21s-2.37-4-4.22-5.41c-1-1-2-1.87-2.91-2.84a6,6,0,0,1-.93-2s0,0,0,0a5.46,5.46,0,0,0,.27,1.24L471,99s0,0,0,0c.14.21.29.41.44.62a8.86,8.86,0,0,0,3,3.54l.58.47c2.28,2.51,4.06,5.19,2.46,9.17a20.57,20.57,0,0,0-1.53,4.25,9.65,9.65,0,0,1-.4-2.58,0,0,0,1,0-.06,0,9.74,9.74,0,0,0,.42,2.88,5.45,5.45,0,0,0,0,1.07,7,7,0,0,0,2.37,4.45c.07.07.16-.06.09-.13a6.56,6.56,0,0,1-2.06-4.3c1.19,2.92,3.49,5.41,5.29,7.88a27.62,27.62,0,0,1,2.92,5c.63,4.94-.78,11-5.59,13.13-.07,0,0,.16.05.13,4.64-2,6.21-7.23,6-12.06,1.21,3.37,1.35,7-1.06,10.2a.09.09,0,0,0,.14.12C487.06,139.24,486.63,134.48,484.79,130.57ZM476.33,118a9.51,9.51,0,0,1,.88-3.65c.8-1.83,1.63-3.59,1.28-5.63a8,8,0,0,0-1.32-3.16,7,7,0,0,1,1.8,6.23c-.39,2.66-1.49,5.4-.88,8.1a6.73,6.73,0,0,0,1,2.26l-1-1A16.65,16.65,0,0,1,476.33,118Zm1.9,3.42c.47.51.95,1,1.42,1.49l.35.37a16.57,16.57,0,0,1,4.07,5.91C482.52,126.6,480.09,124.13,478.23,121.45Z" style="fill: rgb(38, 50, 56); transform-origin: 478.621px 121.407px;" id="elxsvblzvz0fg" class="animable"></path><path d="M477.05,145.05s0,0,0,0S477.07,145.05,477.05,145.05Z" style="fill: rgb(38, 50, 56); transform-origin: 477.054px 145.05px;" id="eluf0hymsc2lm" class="animable"></path><path d="M435.28,92.4a65.7,65.7,0,0,0-5.61,4.26,6.52,6.52,0,0,0-2.36,3.94,7,7,0,0,0,.88,4.56c.3.57.59,1.16.84,1.75a6.63,6.63,0,0,1-.83,2.94c-1,1.72-2.83,2.63-3.85,4.37-1.63,2.82-.5,5.43.43,8.23,0,0,0,0,0,0-.65-2.28-1.65-4.58-.66-7,.82-1.95,2.42-2.86,3.73-4.36a6.84,6.84,0,0,0,1.49-3.36c.75,2.12.85,4.27-1.16,6.16-.08.09,0,.23.12.16,2.48-2,2.22-4.76,1.16-7.29a13.67,13.67,0,0,0-.43-4.17c0-.15-.25-.07-.24.07.07,1,.21,2.11.23,3.16l-.19-.38c-1.46-2.72-1.79-5.74.55-8.18,1.76-1.83,4-3.16,5.93-4.82C435.39,92.44,435.33,92.36,435.28,92.4Z" style="fill: rgb(38, 50, 56); transform-origin: 429.437px 107.419px;" id="elubsfasbcny" class="animable"></path><path d="M404,444.39c-2.4-.83-57.06-42.93-58.12-45.85-.42-1.1,5.25-9.43,12.38-19.28l.23-.31c1.47-2,27.77-36,27.77-36l35.95,28.42L394,405.71l-.48.59s13.72,25.47,14.55,28.81S406.37,445.22,404,444.39Z" style="fill: rgb(235, 148, 129); transform-origin: 384.034px 393.705px;" id="elfu18xod2wel" class="animable"></path><path d="M404,444.39c-2.4-.83-57.06-42.93-58.12-45.85-.33-.86,3.1-6.19,8-13.21,9.23,12.81,43.14,44.63,48.2,44.95,2.58.16,1.49-4-.33-8.43,3.1,6,6,11.79,6.34,13.26C408.91,438.43,406.37,445.22,404,444.39Z" style="fill: rgb(38, 50, 56); transform-origin: 377.053px 414.895px;" id="elygpe8l4t9yq" class="animable"></path><path d="M369.23,364.14l35.15,29.26S460.68,327,462.74,317c2.34-11.34,8.87-100.18,8.72-104.61-.18-5.37-6.1-29-6.1-29H423.19s-5.9,116.18-7.13,119.78C414.74,307.06,369.23,364.14,369.23,364.14Z" style="fill: rgb(55, 71, 79); transform-origin: 420.346px 288.395px;" id="elms6sxa1n41e" class="animable"></path><polygon points="365.5 369.7 370.44 360.38 406.98 392.41 399.8 398.71 365.5 369.7" style="fill: rgb(69, 90, 100); transform-origin: 386.24px 379.545px;" id="el5cokxs2qgtg" class="animable"></polygon><path d="M407.7,384.59c-5.44-5.25-26.64-22.09-29.28-23.47-.06,0-.14.07-.1.12,1.92,2.28,20,17.09,29.24,23.52C407.66,384.83,407.79,384.67,407.7,384.59Z" style="fill: rgb(38, 50, 56); transform-origin: 393.02px 372.949px;" id="el4un90j7xsuv" class="animable"></path><path d="M467.45,200.88a13.35,13.35,0,0,0-1.72-.4,10,10,0,0,1-1.78-.68,13.64,13.64,0,0,1-3.25-2.3,12.38,12.38,0,0,1-2.49-4c-.37-.85-2.09-5.37-2.11-5.41s-.18,0-.15.07c.11.63,1.3,4.54,1.64,5.51a12.9,12.9,0,0,0,2.61,4.67,10.44,10.44,0,0,0,3.6,2.42,7.29,7.29,0,0,0,1.93.52,3.13,3.13,0,0,0,1.77-.1C467.59,201.11,467.53,200.91,467.45,200.88Z" style="fill: rgb(38, 50, 56); transform-origin: 461.746px 194.719px;" id="elq5wrrkkm7y" class="animable"></path><path d="M430.14,185.47l-.88,23.33-1,23.33L426,278.78c-.42,7.77-.83,15.54-1.32,23.31-.06,1-.14,2-.23,3a1.35,1.35,0,0,1-.09.45l-.19.37c-.13.23-.26.44-.4.65-.26.42-.54.82-.82,1.22-1.13,1.6-2.31,3.16-3.49,4.71-2.35,3.1-4.77,6.15-7.19,9.2q-7.27,9.14-14.67,18.18l-14.87,18,14.51-18.3q7.25-9.15,14.44-18.34,3.58-4.6,7.1-9.26c1.17-1.55,2.34-3.11,3.45-4.69l.8-1.2c.23-.4.56-.8.54-1.14.08-.94.16-1.88.21-2.86.46-7.77.84-15.54,1.23-23.31l2.46-46.64,1.29-23.31Z" style="fill: rgb(38, 50, 56); transform-origin: 406.435px 271.67px;" id="el3ztsc8eyw45" class="animable"></path><path d="M463.58,310.8c-.31,2.86-.59,5-.84,6.19-1.16,5.6-19.43,29-35.22,48.46l-10.83-68.11c1.93-24.17,6.49-113.93,6.49-113.93h21Z" style="fill: rgb(38, 50, 56); transform-origin: 440.135px 274.43px;" id="el82qsb9sduto" class="animable"></path><path d="M523.74,442.76c-2.23,1.23-70.11,13.55-73,12.38-1.1-.43-3.48-10.22-6-22.13,0-.12-8.14-45.09-8.14-45.09l40.86-7.61,11,44.64s28.09,6.9,31.12,8.53S526,441.54,523.74,442.76Z" style="fill: rgb(235, 148, 129); transform-origin: 480.538px 417.764px;" id="elq09nhr2s669" class="animable"></path><path d="M523.74,442.76c-2.23,1.23-70.11,13.55-73,12.37-.86-.33-2.51-6.45-4.41-14.82,15.69,1.74,62-2.08,65.67-5.62,1.85-1.8-2-3.82-6.48-5.4,6.54,1.73,12.75,3.47,14.09,4.19C522.63,435.1,526,441.54,523.74,442.76Z" style="fill: rgb(38, 50, 56); transform-origin: 485.404px 442.25px;" id="elcc7avd1x9nn" class="animable"></path><path d="M457,183.41s-1.11,18-6.09,30.88c0,0-7.18,4.47-7.93,5.18L485.68,412l-43.81,8.52s-17.22-93.26-18.68-99.65c-2.35-10.26-21-97.53-21.78-102.49-1.73-10.37,7.85-34.93,7.85-34.93Z" style="fill: rgb(55, 71, 79); transform-origin: 443.441px 301.965px;" id="eluvt0edpmk3" class="animable"></path><path d="M481.21,402.34c-12,1.81-35.09,6.69-37.92,7.87-.07,0,0,.15,0,.15,3.07-.05,31.13-5.62,37.93-7.8A.11.11,0,0,0,481.21,402.34Z" style="fill: rgb(38, 50, 56); transform-origin: 462.292px 406.35px;" id="el4mm9aa7lun2" class="animable"></path><path d="M414.65,200.89a27.09,27.09,0,0,1,2.7-.25,20.48,20.48,0,0,0,2.79-.53,20,20,0,0,0,5-2,10.67,10.67,0,0,0,3.62-3.84c.51-.82,2.84-5.26,2.86-5.29s.28,0,.26.09c-.13.62-1.66,4.47-2.13,5.43A10.47,10.47,0,0,1,426,199a17.59,17.59,0,0,1-8.57,2.47,7.91,7.91,0,0,1-2.83-.26C414.44,201.11,414.53,200.91,414.65,200.89Z" style="fill: rgb(38, 50, 56); transform-origin: 423.197px 195.235px;" id="elkfk4vcqq4pb" class="animable"></path><path d="M451.92,213.81a72.74,72.74,0,0,0-11.55,5.25.13.13,0,0,0,.11.24c3.89-1.63,7.85-3.19,11.65-5A.25.25,0,0,0,451.92,213.81Z" style="fill: rgb(38, 50, 56); transform-origin: 446.293px 216.55px;" id="elehusz8tqh3a" class="animable"></path><path d="M453.4,187.23c0-.14-.25-.17-.25,0a128.2,128.2,0,0,1-.77,12.94c-.19,2-1.9,13-5.35,12.17-.58-.14-.87-.71-.95-1.59a13.46,13.46,0,0,1,.49-3.37c.4-2.31.73-4.62.95-7a63.24,63.24,0,0,0,0-13,.12.12,0,0,0-.23,0,120.44,120.44,0,0,1-1.21,18c-.46,2.87-1.95,7.17,1.05,7.64s5.1-6.74,5.49-8.71A66.42,66.42,0,0,0,453.4,187.23Z" style="fill: rgb(38, 50, 56); transform-origin: 449.467px 200.078px;" id="el8ubfumv7ffp" class="animable"></path><path d="M447.12,212.62a18.68,18.68,0,0,0-.8,2.28,5.08,5.08,0,0,0-.34,1.88c0,.12.17.13.24.05A6.51,6.51,0,0,0,447,215c.27-.71.55-1.41.8-2.12A.38.38,0,0,0,447.12,212.62Z" style="fill: rgb(38, 50, 56); transform-origin: 446.89px 214.677px;" id="el21lr9aawbph" class="animable"></path><path d="M412.85,183.41c-1.19,4.57-2.32,9.16-3.35,13.77s-2,9.24-2.58,13.92l-.17,1.75c0,.58,0,1.16-.05,1.74l.52,3.47,1.32,7,2.82,13.89,11.58,55.5,11.59,55.5,5.76,27.76L446,405.45l-6.16-27.68-6-27.7L422,294.61c-3.83-18.51-7.69-37-11.35-55.55l-2.69-13.92-1.25-7-.5-3.54a30,30,0,0,1,.27-3.57c.66-4.7,1.72-9.31,2.82-13.91S411.58,188,412.85,183.41Z" style="fill: rgb(38, 50, 56); transform-origin: 426.105px 294.43px;" id="el1yidwymylbf" class="animable"></path><polygon points="442.49 424.31 438.15 414.69 485.85 405.45 486.43 414.99 442.49 424.31" style="fill: rgb(69, 90, 100); transform-origin: 462.29px 414.88px;" id="eltxhcjyisow" class="animable"></polygon><path d="M463.34,124.92c11.26,7,44.91,33.68,42.39,44.72-2.42,10.6-14.64,11.44-25.13,1.43-7.5-7.16-17.1-23.52-22.93-35.26C452.94,126.29,452.93,118.41,463.34,124.92Z" style="fill: rgb(235, 148, 129); transform-origin: 480.244px 150.321px;" id="elx0gwgkfjage" class="animable"></path><path d="M463.34,124.92c11.26,7,44.91,33.68,42.39,44.72-2.42,10.6-14.64,11.44-25.13,1.43-7.5-7.16-17.1-23.52-22.93-35.26C452.94,126.29,452.93,118.41,463.34,124.92Z" style="fill: rgb(105, 104, 97); transform-origin: 480.244px 150.321px;" id="el2aam4n35ifc" class="animable"></path><g id="elviktv71v6d"><path d="M500.23,177.05c-5.11,2.49-12.74.59-19.63-6-7.5-7.16-17.1-23.52-22.93-35.26-2.17-4.37-3.35-8.39-3-10.84Z" style="opacity: 0.1; transform-origin: 477.42px 151.526px;" class="animable"></path></g><path d="M467,165.73l-1.65,17.68h-56.1s16-44.16,31.89-59.07c6.33-5.93,12.2-4.17,16.68.37,1,1,13.37,21.42,14.41,28.7C473.09,159.39,467,165.73,467,165.73Z" style="fill: rgb(105, 104, 97); transform-origin: 440.782px 151.984px;" id="elxdar71121gi" class="animable"></path><path d="M459.19,162.38a45.24,45.24,0,0,0-8.4,1c-1.39.32-2.76.73-4.12,1.17-.69.22-1.37.41-2.06.6a7.32,7.32,0,0,1-2.17.33c-.06,0-.07.12,0,.12a11.71,11.71,0,0,0,2.05.14,12.1,12.1,0,0,0,2-.3c1.41-.31,2.81-.71,4.21-1,2.83-.66,5.67-1.33,8.52-1.73C459.33,162.66,459.33,162.37,459.19,162.38Z" style="fill: rgb(38, 50, 56); transform-origin: 450.845px 164.061px;" id="elnpq5ugr7tae" class="animable"></path><path d="M465.75,166.17a47.87,47.87,0,0,0-6.84-1,30.73,30.73,0,0,0-3.46,0c-.56,0-1.11.06-1.66.1s-1.22.19-1.83.22c-.06,0-.08.13,0,.13.57,0,1.14.11,1.72.14l1.72.1c1.15.06,2.3.15,3.45.2,2.3.11,4.6.24,6.89.45C465.86,166.43,465.87,166.2,465.75,166.17Z" style="fill: rgb(38, 50, 56); transform-origin: 458.871px 165.816px;" id="el2h9xrh3iq2" class="animable"></path><path d="M446.35,133c-1.1,6.42-24.65,51.2-25.68,53.33-2.87,6-23.16,17.62-26.38,2.43s26.51-47.92,40.11-60.56C444.12,119.16,448.39,121.07,446.35,133Z" style="fill: rgb(105, 104, 97); transform-origin: 420.448px 159.395px;" id="elktvo5lvoeuq" class="animable"></path><path d="M424.71,178.47c1.15-2.77,2.41-5.49,3.67-8.2s2.59-5.39,3.92-8.07,2.7-5.34,4.12-8l2.14-3.95c.74-1.3,1.46-2.62,2.23-3.91-.57,1.38-1.19,2.74-1.79,4.12l-1.88,4.07c-1.26,2.72-2.59,5.4-3.92,8.08s-2.71,5.35-4.13,8S426.23,175.89,424.71,178.47Z" style="fill: rgb(38, 50, 56); transform-origin: 432.75px 162.405px;" id="els81rsuvfgmg" class="animable"></path><path d="M436.58,155a11.34,11.34,0,0,1,1.67-2.55,11.19,11.19,0,0,1,2.25-2.08,11.17,11.17,0,0,1-1.67,2.56A11.37,11.37,0,0,1,436.58,155Z" style="fill: rgb(38, 50, 56); transform-origin: 438.54px 152.685px;" id="elthrqbyfj77" class="animable"></path><path d="M445.37,124.47c.45,1,6.93,7.1,11.83,5.95,1.6-.37-.07-9.18-.07-9.18l0-.68.35-9.5-12-4.89-1.72-.62s.08,2.6.21,5.85c0,.15,0,.3,0,.46s0,.36,0,.53c0,.48,0,1,.05,1.47s0,.74.07,1.13.05.78.07,1.18A61.55,61.55,0,0,0,445.37,124.47Z" style="fill: rgb(235, 148, 129); transform-origin: 450.827px 118.057px;" id="eln4yrimupg98" class="animable"></path><path d="M457.5,111.06l-.26,7.17a22.11,22.11,0,0,1-12.6,1.86c-.15-1.21-.3-2.57-.41-3.92,0-.4-.06-.78-.08-1.18s0-.76-.07-1.13,0-1-.05-1.47c0-.17,0-.35,0-.53s0-.31,0-.46c-.13-3.25-.2-5.85-.2-5.85l1.71.62Z" style="fill: rgb(38, 50, 56); transform-origin: 450.665px 112.937px;" id="elrzi51azc6yj" class="animable"></path><path d="M432.33,97.38c-3.9,16.23,5.37,20.4,8.87,21.23,3.18.76,14.09,3,19.65-12.78s-.75-22.67-7.92-24.8S436.24,81.16,432.33,97.38Z" style="fill: rgb(235, 148, 129); transform-origin: 447.182px 99.7622px;" id="elyft3dpwhjvn" class="animable"></path><path d="M459.38,106.28c-3.42-.86-1.7-8.76-1.7-8.76s-1.83-1.25-3.29-5.76c0,0,.79,3.79,2.73,5.74.33.33-11.17-3.67-10.13-13a18.72,18.72,0,0,1-13.39,7.82c-.28,0,2.73-7.92,4.91-9.41a17.89,17.89,0,0,1,4.07-2.1,17.36,17.36,0,0,1,13.12-.25c7,2.78,9.91,11.52,9.71,14.77C465,101.75,461,106.69,459.38,106.28Z" style="fill: rgb(38, 50, 56); transform-origin: 449.501px 92.8491px;" id="el3qaoc5apozf" class="animable"></path><path d="M456.7,97.61c-6.36-1.82-10.49-7.14-9.46-13.83a.15.15,0,0,0-.29-.07c-2.46,6.45,3.58,13.05,9.78,14C456.88,97.76,456.85,97.65,456.7,97.61Z" style="fill: rgb(38, 50, 56); transform-origin: 451.608px 90.6666px;" id="eli8hrwi5sg8o" class="animable"></path><path d="M447.15,84.28a0,0,0,0,0-.06,0c-2.46,3-5.55,8.57-10.29,7.18-.13,0-.2.15-.07.19C441.16,93.36,445.8,88,447.15,84.28Z" style="fill: rgb(38, 50, 56); transform-origin: 441.905px 88.1288px;" id="eli2bk0i7qinh" class="animable"></path><path d="M458,106.46s4.38-4.61,6.52-3-1.69,8.69-4.59,9.3a2.83,2.83,0,0,1-3.51-2.07Z" style="fill: rgb(235, 148, 129); transform-origin: 460.781px 107.991px;" id="ell8rllk8mmq" class="animable"></path><path d="M463.34,105.48c.05,0,.05.07,0,.08-2,.49-3.32,2.12-4.31,3.86a1.56,1.56,0,0,1,2.37-.08c.05,0,0,.12-.07.1a1.72,1.72,0,0,0-2,.31,8.11,8.11,0,0,0-1.14,1.4c-.12.15-.41,0-.32-.17l0,0C458.25,108.47,460.67,105.33,463.34,105.48Z" style="fill: rgb(38, 50, 56); transform-origin: 460.615px 108.343px;" id="eliedw588to1j" class="animable"></path><path d="M436,94.3a10.77,10.77,0,0,1,1.14-.15,1.86,1.86,0,0,1,1.19.07.6.6,0,0,1,.24.69,1.45,1.45,0,0,1-1.25.8,2.18,2.18,0,0,1-1.54-.27A.64.64,0,0,1,436,94.3Z" style="fill: rgb(38, 50, 56); transform-origin: 437.057px 94.9172px;" id="elwmb7wwfm3y" class="animable"></path><path d="M447.92,97c-.28-.27-.59-.48-.89-.72a1.81,1.81,0,0,0-1.06-.56.59.59,0,0,0-.56.46,1.48,1.48,0,0,0,.65,1.34,2.18,2.18,0,0,0,1.45.56A.63.63,0,0,0,447.92,97Z" style="fill: rgb(38, 50, 56); transform-origin: 446.758px 96.9px;" id="ela30n26bhns4" class="animable"></path><path d="M444.2,100.59s.07.08.06.12c-.32,1.09-.5,2.39.4,3,0,0,0,.07,0,.06C443.46,103.3,443.72,101.57,444.2,100.59Z" style="fill: rgb(38, 50, 56); transform-origin: 444.229px 102.18px;" id="el1lkvhzqlx2x" class="animable"></path><path d="M445.48,99.7c1.8.32,1,3.91-.65,3.6S444,99.43,445.48,99.7Z" style="fill: rgb(38, 50, 56); transform-origin: 445.212px 101.502px;" id="el17bbd7wpwrv" class="animable"></path><path d="M446.14,100c.27.27.5.7.87.82s.84-.17,1.2-.46c0,0,.06,0,.05,0-.14.69-.56,1.33-1.31,1.28s-1-.77-1.06-1.5C445.88,100.1,446,99.93,446.14,100Z" style="fill: rgb(38, 50, 56); transform-origin: 447.075px 100.813px;" id="el02spows3o2ot" class="animable"></path><path d="M437.59,99s-.1,0-.11.08c-.2,1.11-.61,2.36-1.7,2.52,0,0,0,.06,0,.06C437,101.71,437.58,100.05,437.59,99Z" style="fill: rgb(38, 50, 56); transform-origin: 436.685px 100.331px;" id="eluf4cbxubht" class="animable"></path><path d="M436.84,97.59c-1.76-.52-2.65,3-1,3.51S438.31,98,436.84,97.59Z" style="fill: rgb(38, 50, 56); transform-origin: 436.286px 99.3435px;" id="eld045ymbwixi" class="animable"></path><path d="M436,97.63c-.33.12-.69.39-1,.33s-.59-.53-.75-1c0,0-.05,0-.06,0-.19.67-.14,1.43.48,1.73s1.15-.2,1.48-.84C436.22,97.8,436.17,97.59,436,97.63Z" style="fill: rgb(38, 50, 56); transform-origin: 435.136px 97.8697px;" id="elkmr0pthxbn" class="animable"></path><path d="M442.4,110.1c-.32.22-.65.53-1.06.5a3.08,3.08,0,0,1-1.15-.49s-.08,0-.06,0a1.53,1.53,0,0,0,1.31.85,1.2,1.2,0,0,0,1.05-.84C442.52,110.11,442.44,110.07,442.4,110.1Z" style="fill: rgb(38, 50, 56); transform-origin: 441.312px 110.525px;" id="elpj7abji7ugo" class="animable"></path><path d="M438.09,104.3s-.61,1.6-.79,2.38a16.73,16.73,0,0,1,4.35,1.7c.31.19.38-.1.05-.42a6.85,6.85,0,0,0-3.58-1.8c0-.23,1-2.45.87-2.49a6.87,6.87,0,0,0-1.87,0c1.18-3.37,2.88-6.53,4-9.9,0-.12-.13-.2-.19-.1a57.71,57.71,0,0,0-4.76,10.48C436,104.58,437.74,104.36,438.09,104.3Z" style="fill: rgb(38, 50, 56); transform-origin: 439.038px 101.033px;" id="el8asiz41axhx" class="animable"></path><path d="M442.71,135.53c-.28-2.41-1.82-5.27-2.46-6.66s-3.18-3.87-3.16-4.75,4.84-2.43,5.5-2.27,4,5.59,4.67,7.7,1.08,3.77,1.08,3.77Z" style="fill: rgb(38, 50, 56); transform-origin: 442.715px 128.684px;" id="el8fe67ycp3i8" class="animable"></path><path d="M464.92,133.26c.48-.4-1-7.32-2.62-8.61s-12-1.84-13.38.28-.08,9.08.67,9.24,2.75,0,3.17-.41-.49-4.84.13-5.59c.82-1,6.74-.64,7.26.05s1,4.56,1.05,4.81S464.15,133.91,464.92,133.26Z" style="fill: rgb(38, 50, 56); transform-origin: 456.662px 128.87px;" id="elzrv7idlgjfa" class="animable"></path><path d="M431,193.27c1.95,4.84,9.31,11.4,13.87,12.51s34.78,7.12,40.13.45c4.87-6.07-.9-51.69-8.68-66.47a14.6,14.6,0,0,0-2.16-3.21l-.17-.18c-7.79-7.77-24.49-4.72-26.6-4.21-3.28.81-8,3.59-10.72,10.1S429,188.44,431,193.27Z" style="fill: rgb(55, 71, 79); transform-origin: 458.665px 170.236px;" id="elwzoswygrndb" class="animable"></path><path d="M448.53,191.25c.27,3.35,4.61,11.43,10.19,13.68s26.27,1.3,31.15-2.81a5.29,5.29,0,0,0,1.28-2.83c1.12-5.15-2.69-14.17-4.27-24.63-1.45-9.65-.5-20.77-3.36-25.33a7.58,7.58,0,0,0-2-2.31,16.52,16.52,0,0,0-2.91-1.6,32.32,32.32,0,0,0-17.87-1.81c-3.64.74-6.68,2.23-8.17,4.56C448.76,154.08,448.27,187.92,448.53,191.25Z" style="fill: rgb(219, 219, 219); transform-origin: 469.912px 174.601px;" id="el9y1d0nrbxed" class="animable"></path><g id="elq80xxdts4ki"><path d="M448.53,191.25c.27,3.35,4.61,11.43,10.19,13.68s26.27,1.3,31.15-2.81a5.29,5.29,0,0,0,1.28-2.83,26.86,26.86,0,0,1-12.27,3.4,47.38,47.38,0,0,1-9.22-.51c-3-.45-6.09-1.32-8.46-3.51-4.47-4.14-5.63-11.64-5.88-17.88a114.35,114.35,0,0,1,1.56-20.47,87,87,0,0,1,3.85-16.71c-3.64.74-6.68,2.23-8.17,4.56C448.76,154.08,448.27,187.92,448.53,191.25Z" style="opacity: 0.1; transform-origin: 469.811px 174.864px;" class="animable"></path></g><path d="M453.23,178.14h1.4c.09-7,1.09-25.95,4.52-29.45s15.58-3.31,20.53-1.33a23.2,23.2,0,0,1,3.84,2,7.72,7.72,0,0,0-2-2.31,17.64,17.64,0,0,0-2.92-1.61c-6-1.64-16.92-1.35-20.39,2.19C453.62,152.27,453.25,177.09,453.23,178.14Z" style="fill: rgb(38, 50, 56); transform-origin: 468.375px 161.309px;" id="el97ctwg1q5v9" class="animable"></path><path d="M437.12,171.28l1.39.12c2.75-28.05,4.05-29,9.51-33.08l.19-.14c5.31-4,17.18-2.77,21.78-1.61a16,16,0,0,1,6.32,3.19,14.6,14.6,0,0,0-2.16-3.21,17.43,17.43,0,0,0-3.81-1.46c-3.22-.81-16.58-2.87-22.91,1.86l-.19.13C441.48,141.37,439.94,142.52,437.12,171.28Z" style="fill: rgb(38, 50, 56); transform-origin: 456.715px 152.671px;" id="elj0denw0sjh" class="animable"></path><path d="M427.31,192.23c.52,3.71,8,11.45,11.77,13.24.77.36,7.27,2.18,7.76-.68a5.4,5.4,0,0,0,.09-.58c1.07-7.49-.73-24-1.28-26.21-.66-2.63-7.79-7.95-12.18-9.21a4.45,4.45,0,0,0-2.39-.18C427.73,169.64,427,189.88,427.31,192.23Z" style="fill: rgb(69, 90, 100); transform-origin: 437.254px 187.448px;" id="elqmrbjhnm2ys" class="animable"></path><path d="M427.31,192.23c.52,3.71,8,11.45,11.77,13.24.77.36,7.27,2.18,7.76-.68a5.4,5.4,0,0,0,.09-.58c-4.83-.7-11.44-3.46-13.92-9.81-2.36-6-.81-18.58.46-25.61a4.45,4.45,0,0,0-2.39-.18C427.73,169.64,427,189.88,427.31,192.23Z" style="fill: rgb(55, 71, 79); transform-origin: 437.088px 187.448px;" id="elno7bsycbkw" class="animable"></path><path d="M497.1,159.83c9.15,1.69,8.23,13.48,3.3,16.93-11.58,8.09-30.23,12.75-42.91,14.24-4.09.48-8.69-26.81-4.46-28C458.1,161.56,479.18,156.52,497.1,159.83Z" style="fill: rgb(235, 148, 129); transform-origin: 477.708px 174.865px;" id="elkzihgecmif8" class="animable"></path><path d="M453.84,160.92l7.59,34.93s33.25-11.65,41.07-20.94c7.39-8.77-1.28-15.06-7.84-16.8C485.58,155.69,453.84,160.92,453.84,160.92Z" style="fill: rgb(105, 104, 97); transform-origin: 479.586px 176.66px;" id="elg4v3izoo3ai" class="animable"></path><path d="M491.53,157.92c-.7,0-1.39,0-2.08,0-1.41,0-2.82,0-4.23,0-2.85.07-5.7.17-8.54.37-5.68.39-21.13,2.66-22.71,2.85-.08,0-.27-.3.12-.42.19-.09,10.15-1.9,13-2.28a130.75,130.75,0,0,1,17.12-1.19h.28l.58-.2a12.51,12.51,0,0,1,1.47-.34,14.93,14.93,0,0,1,3-.19.06.06,0,0,1,0,.11,17.94,17.94,0,0,0-3,.44l-1,.19,3.49.11c.81,0,1.6.07,2.4.14s1.57.09,2.33.23c.06,0,.05.1,0,.11C493,158,492.24,157.91,491.53,157.92Z" style="fill: rgb(38, 50, 56); transform-origin: 473.827px 158.825px;" id="elkx77nx2ne6" class="animable"></path><path d="M464.74,174.06c.78,3.78,1.6,7.56,2.23,11.38.36,2.17.73,4.35,1.07,6.52,0,.08-.13.13-.15,0-.94-3.76-1.87-7.53-2.63-11.34s-1.54-7.58-2.25-11.38c-.4-2.17-.73-4.34-1-6.54,0,0,.07-.06.08,0C463.16,166.45,464,170.25,464.74,174.06Z" style="fill: rgb(38, 50, 56); transform-origin: 465.025px 177.357px;" id="el3b0v645nc34" class="animable"></path><path d="M439,180.54c3.31,1.61,10.26,28.77,4.85,28.78-25.45.09-42.16-10.81-45.81-14.28-4.78-4.54-2.9-12.56.49-15.24C403.38,175.91,435.68,178.94,439,180.54Z" style="fill: rgb(235, 148, 129); transform-origin: 420.502px 193.61px;" id="el7y6hnx9fevg" class="animable"></path><path d="M476.85,185.37a4.47,4.47,0,0,1-1.93,4.73,6.62,6.62,0,0,1,2,4c.2,2.72-4,4.23-4,4.23a8.21,8.21,0,0,1,1.46,4.6c-.07,2.63-4.08,4.75-4.08,4.75a7.17,7.17,0,0,1-1.25,4.85c-2.79,3.67-9.8,3-14.26,2.67s-16.78-5.56-19.22-6.31l2.06-28.65s20.47-4.07,25.65-2.91C467.7,178.35,476,182,476.85,185.37Z" style="fill: rgb(235, 148, 129); transform-origin: 456.264px 196.296px;" id="eli1bd9darkvr" class="animable"></path><path d="M474.76,189.62c-4.4-2.16-9.19-2.9-13.93-3.92-.1,0-.14.15,0,.17,4.72.95,9.2,2.83,13.88,4C474.81,189.88,474.87,189.68,474.76,189.62Z" style="fill: rgb(38, 50, 56); transform-origin: 467.779px 187.785px;" id="elnk1xg55qx4a" class="animable"></path><path d="M472.9,198a12.82,12.82,0,0,0-3.25-.76q-1.75-.28-3.51-.51c-2.35-.3-4.7-.55-7.06-.73-.11,0-.15.15,0,.17,2.34.3,4.68.64,7,1,1.17.2,2.33.41,3.49.63a15.45,15.45,0,0,0,3.3.47A.17.17,0,0,0,472.9,198Z" style="fill: rgb(38, 50, 56); transform-origin: 465.968px 197.135px;" id="elj66ulvufib" class="animable"></path><path d="M470.25,207.7a8.66,8.66,0,0,0-3-.53l-3.21-.37c-2.15-.25-4.29-.51-6.42-.84-.11,0-.14.15,0,.17,2.17.34,4.33.72,6.5,1,1.06.17,2.13.32,3.19.47a8.33,8.33,0,0,0,2.94.16A.05.05,0,0,0,470.25,207.7Z" style="fill: rgb(38, 50, 56); transform-origin: 463.893px 206.892px;" id="elcwakynitxyd" class="animable"></path><path d="M435.64,179l-4.58,33.48s-30.26-8.23-35.38-20.31c-3.4-8,1.49-11.85,3.4-12.94C401.59,177.83,415.57,176.15,435.64,179Z" style="fill: rgb(105, 104, 97); transform-origin: 415.074px 194.963px;" id="eluq1pqydpd8" class="animable"></path><path d="M407.48,177.37c13.54-1.44,27.9,1.58,27.93,1.58.26,0,.26.37.12.35a160.12,160.12,0,0,0-28.11-1.72C407.33,177.58,407.38,177.38,407.48,177.37Z" style="fill: rgb(38, 50, 56); transform-origin: 421.498px 178.141px;" id="eltdobp4kplr" class="animable"></path><path d="M423.62,208.78c.31-3,1.47-11.78,1.87-14.11.81-4.73,1.55-9.51,2.73-14.17,0-.09.18-.09.17,0-.37,4.72-1.16,9.43-1.88,14.1-.37,2.34-2.32,13-2.74,14.18C423.74,208.87,423.62,208.87,423.62,208.78Z" style="fill: rgb(38, 50, 56); transform-origin: 426.005px 194.64px;" id="el9mu0u65au3t" class="animable"></path></g><defs>     <filter id="active" height="200%">         <feMorphology in="SourceAlpha" result="DILATED" operator="dilate" radius="2"></feMorphology>                <feFlood flood-color="#32DFEC" flood-opacity="1" result="PINK"></feFlood>        <feComposite in="PINK" in2="DILATED" operator="in" result="OUTLINE"></feComposite>        <feMerge>            <feMergeNode in="OUTLINE"></feMergeNode>            <feMergeNode in="SourceGraphic"></feMergeNode>        </feMerge>    </filter>    <filter id="hover" height="200%">        <feMorphology in="SourceAlpha" result="DILATED" operator="dilate" radius="2"></feMorphology>                <feFlood flood-color="#ff0000" flood-opacity="0.5" result="PINK"></feFlood>        <feComposite in="PINK" in2="DILATED" operator="in" result="OUTLINE"></feComposite>        <feMerge>            <feMergeNode in="OUTLINE"></feMergeNode>            <feMergeNode in="SourceGraphic"></feMergeNode>        </feMerge>            <feColorMatrix type="matrix" values="0   0   0   0   0                0   1   0   0   0                0   0   0   0   0                0   0   0   1   0 "></feColorMatrix>    </filter></defs></svg>